<svg id="Layer_1" data-name="Layer 1" xmlns="http://www.w3.org/2000/svg" viewBox="0 0 2000 2000"><defs><style>.cls-1{fill:#fff;}.cls-2{fill:#231f20;}</style></defs><title>6693</title><rect class="cls-1" width="2000" height="2000"/><path class="cls-2" d="M537.31,153.27c-7.69-4.86-17.17-6.65-26.16-5.92a2.87,2.87,0,0,0-.61.12,52.27,52.27,0,0,0-13.23-3.41,97.52,97.52,0,0,0-24,.45c11.12-6.51,24.77-17,15.1-23.54-5.93-4-13.86-1-18.63,3.35A39.84,39.84,0,0,0,457.69,146a2.94,2.94,0,0,0,0,1.19c-5.25,1.07-10.44,2.25-15.51,3.35-17.92,3.88-35.36,9.37-53.11,13.81,5-4.8,9.29-13.37,4.65-19.75s-11.79-3.11-16.2,1.67a73.31,73.31,0,0,0-8.75,11.54A19.36,19.36,0,0,1,355,167.51a2.66,2.66,0,0,0-1.1.5c-8-.9-16.55-3.45-21.17-10.16-1.95-2.84-6.63-.14-4.65,2.72,9.14,13.29,28.53,14.36,43.1,12.69,12.35-1.42,24.37-4.84,36.34-8.31l.11,0A36.22,36.22,0,0,1,422,168.42c3.84,2,7.42,4.44,11.41,6.12,4.72,2,14.68,2.6,17.47-3,3.38-6.77-4.61-12.68-9.82-14.85-.32-.14-.64-.24-1-.36,14.37-3.44,29.07-6.45,43.62-7.25,9.26-.52,18.63.34,27.17,4.09a.56.56,0,0,0,0,.12,38.44,38.44,0,0,0,16.45,18.57c5.25,3,15.79,6.73,19-.95C549.33,163.67,543,156.84,537.31,153.27Zm-154.72-4.49c1.25-1.16,3-3.05,4.88-2.5,3.31,1,3.19,5,2.4,7.37a16.18,16.18,0,0,1-7.85,9.07c-.62.31-1.27.58-1.92.85a30.89,30.89,0,0,0,4.55-5.63c1.91-2.91-2.76-5.61-4.65-2.72a21,21,0,0,1-5.38,5.9c-.74.53-1.55,1.15-2.4,1.75C375.64,158.15,378.17,152.86,382.59,148.78Zm62.32,18.74c.25,3-.93,2.77-3.69,2.95a13,13,0,0,1-5.41-.78c-3.56-1.3-6.73-3.46-10.05-5.31a46.79,46.79,0,0,1,12,3.85c3.09,1.55,5.82-3.1,2.72-4.66a46.18,46.18,0,0,0-8.77-3.22,25.71,25.71,0,0,1,5.59.73C440.67,162,444.62,164,444.91,167.52Zm24-33.74c2.48-3.55,8.78-11.58,14.14-9.08,6,2.79-4.65,10.11-7.36,12.1-1.2.88-2.44,1.71-3.69,2.5,1.72-2.17,3.43-4.51,5.81-6,3-1.81.25-6.47-2.72-4.65s-5,4.43-7.13,7.09c-.52.64-1,1.3-1.52,1.94Q467.54,135.73,468.88,133.78Zm56.5,30.27a32.75,32.75,0,0,1-5.49-5.81,139.51,139.51,0,0,1,13.62,10.63A40,40,0,0,1,525.38,164.05Zm13.41,6.07a2.34,2.34,0,0,0,.09-3.73A147.7,147.7,0,0,0,521.5,153.1a37.12,37.12,0,0,1,6.23,1.56c4.62,1.61,14.17,6,13.94,12.18C541.58,169.09,540.44,170,538.79,170.12Z"/><path class="cls-2" d="M294,157.85c-4.63,6.74-13.22,9.25-21.17,10.16a2.66,2.66,0,0,0-1.1-.5c-5.85-1.21-10.33-3.83-13.41-9a73.47,73.47,0,0,0-8.5-11.5c-4.45-5-11.8-9.3-16.83-2.38-4.52,6.2-.56,14.44,4.18,19.25a6.89,6.89,0,0,0,.56.52c-17.79-4.4-35.26-9.94-53.2-13.83-5.07-1.1-10.26-2.28-15.51-3.35a2.94,2.94,0,0,0,0-1.19A39.79,39.79,0,0,0,157,124.32c-4.76-4.36-12.69-7.38-18.62-3.35-9.68,6.57,4,17,15.11,23.54a100.09,100.09,0,0,0-23.05-.56,53.42,53.42,0,0,0-14.14,3.54,2.65,2.65,0,0,0-.67-.14,43.32,43.32,0,0,0-25.46,5.48c-5.92,3.52-12.83,10.57-9.71,18.1s13.06,4.08,18.26,1.33a38.26,38.26,0,0,0,17.16-18.95.56.56,0,0,0,0-.12c8.54-3.75,17.91-4.61,27.17-4.09,14.55.8,29.25,3.81,43.62,7.25-.32.12-.64.22-1,.36-5.21,2.17-13.21,8.08-9.82,14.85,2.79,5.58,12.75,5,17.47,3,4-1.68,7.57-4.16,11.41-6.12A36.18,36.18,0,0,1,219.09,165l.11,0c12,3.47,24,6.89,36.34,8.31,14.56,1.67,34,.6,43.1-12.69C300.62,157.71,296,155,294,157.85Zm-208.92,9c-.22-5.85,8.69-10.28,13.14-11.91a38.86,38.86,0,0,1,7.05-1.82,147.85,147.85,0,0,0-17.4,13.28,2.36,2.36,0,0,0,.12,3.76C86.31,170.05,85.16,169.12,85.07,166.84ZM102,163.52a41,41,0,0,1-8.7,5.32,143.09,143.09,0,0,1,13.58-10.6A32,32,0,0,1,102,163.52Zm41.76-38.82c6.92-2,13.13,5.76,16.81,13.28-.57-.74-1.13-1.48-1.72-2.21-2.13-2.65-4.19-5.29-7.13-7.09s-5.67,2.84-2.72,4.65c2.38,1.46,4.09,3.8,5.8,6-1-.63-2-1.27-2.94-1.95C149.71,135.84,137,126.65,143.72,124.7Zm93.15,29c-.77-2.32-.77-4.21,1.08-6,2.45-2.34,3.61-1.29,6.2,1.1,4.43,4.09,7,9.38,10.45,14.14-.88-.61-1.72-1.25-2.48-1.8a21,21,0,0,1-5.38-5.9c-1.89-2.89-6.56-.19-4.65,2.72a30.59,30.59,0,0,0,4.53,5.6l-.85-.32A16.17,16.17,0,0,1,236.87,153.65Zm-45.94,16c-2.09.75-7.37,1.77-9.29,0-4-3.6,5.93-8.16,7.77-8.65a26.45,26.45,0,0,1,5.54-.72,46.63,46.63,0,0,0-8.72,3.21c-3.1,1.56-.37,6.21,2.72,4.66A47,47,0,0,1,201,164.37C197.68,166.23,194.5,168.42,190.93,169.69Z"/><path class="cls-2" d="M568.64,322.65c-2.51-2.4-6.32,1.4-3.82,3.81,5.87,5.63-8,13.86-11.7,15.12a59.12,59.12,0,0,1-20.8,2.83c-6.47-.21-12.81-2.09-19.3-1.21-.85.12-1.69.29-2.52.49-4.22-4.51-10.41-7.34-16.24-8.82-20.33-5.14-42.19,2.1-55.88,17.66a22,22,0,0,0-17.26-9.24c-12.24-.71-22.71,6.6-31.68,14.07l-.07.06a22.85,22.85,0,0,0-9.92-7.55c-26.1-10.74-47.61,22.18-54.45,42.58-1.1,3.3,4.1,4.71,5.2,1.43,5.3-15.8,17.5-36.6,35.4-40,9.45-1.8,15.61,1.72,19.12,7.56a133.66,133.66,0,0,0-21.45,23.36c-5.53,8-11.08,21.08-4.32,30s17.1-.81,22.23-6.57c9.49-10.67,16.88-31.75,10.84-46.12,5.51-4.81,11.51-9.34,18.29-11.78,9-3.24,19.41-1.81,24.7,6.44a153.44,153.44,0,0,0-8.89,13.84c-2.37,4.05-5.39,9-5.25,13.92.27,9.54,10.9,6.29,15.14,1.56a27.9,27.9,0,0,0,5.14-28.46,48.7,48.7,0,0,1,9.53-9.27c13.48-9.71,33.47-13.38,48.86-6a22.5,22.5,0,0,1,5.13,3.34,39.56,39.56,0,0,0-6.69,4c-7.09,5.26-16.18,14.07-13.85,23.9,2.41,10.14,14.22,10.55,21.2,4.87,7.63-6.2,12.4-17.3,9.64-27.09a17.87,17.87,0,0,0-1.12-2.91c4.81-.6,9.64.48,14.43,1l.07,0c3.69.41,7.78,1.92,10.42,4.62a5.88,5.88,0,0,1,1.67,4.79c-.65,5.32-5.06.45-4.65-.17,1.94-2.88-2.72-5.58-4.65-2.72-5.12,7.6,10.15,15.53,14.1,5.94,2.16-5.24,0-9.48-3.77-12.53.73-.07,1.47-.15,2.2-.25,8.49-1.1,17.19-3.41,22.89-10.15C570.57,334.32,574,327.83,568.64,322.65Zm-182.71,67.7c-2.83,7.4-9,17.77-16.55,21.21-3,1.36-5.75,1.57-7.1-1.93a15.56,15.56,0,0,1-.79-7.17c.53-5.16,3.08-9.95,5.92-14.19,5.36-8,12.44-15.06,19.49-21.54l.11-.1C389.28,374,388.67,383.18,385.93,390.35Zm46.26-8.06c-.93,1.06-2.59,3-4.13,2.94-2.47-.07-1.69-2.5-1-4.45,1.33-3.91,3.76-7.52,5.89-11,1.45-2.39,2.95-4.76,4.53-7.07A23.31,23.31,0,0,1,432.19,382.29Zm77.22-19.37a21,21,0,0,1-7.66,11.52c-5.21,4.08-13.76,2.67-12.4-5.41s10.74-15.74,18.84-19C510.16,353.62,510.6,357.93,509.41,362.92Z"/><path class="cls-2" d="M254.35,348.16c-7.77.7-13.13,4.27-16.56,9.33a73.81,73.81,0,0,0-16-10.69c-9.67-4.57-21.81-5.41-30.31,2a22.72,22.72,0,0,0-3.3,3.58,54.3,54.3,0,0,0-9.44-8.71,57.45,57.45,0,0,0-29.7-10.37c-10.15-.64-21.76,1.3-29.93,7.73a21.66,21.66,0,0,0-2.82,2.65c-6-1.31-11.79-.22-18,.42a60.27,60.27,0,0,1-22.13-1.77c-3.94-1.1-7.66-2.35-10.59-5.31-2.35-2.38-7.24-7.2-3.71-10.6,2.51-2.4-1.31-6.21-3.81-3.81-4.59,4.41-2.79,10.18.66,14.63C63.47,343.4,69,346.21,76.5,348a59.7,59.7,0,0,0,8.76,1.44c-3.76,3-5.94,7.28-3.78,12.53,3.94,9.57,19.22,1.67,14.1-5.94-1.93-2.86-6.6-.17-4.66,2.72.8,1.18-3.42,4.12-4.61.86-.66-1.81.41-4.22,1.64-5.48a17.72,17.72,0,0,1,10.41-4.62,3.66,3.66,0,0,0,.63-.14c1-.1,2-.21,3-.34a40.12,40.12,0,0,1,10.93-.08c-2.37,5.39-2.25,11.63-.12,17.79,3.09,9,14.57,20,24.62,14.13,11-6.37,3.43-19.87-3-26.23a44.33,44.33,0,0,0-12.71-9.09C132,336,152.44,337.65,164,341.93a50.06,50.06,0,0,1,21.23,15.15l.18.23A25.62,25.62,0,0,0,184.7,375c2.15,6.77,7.5,16.62,16,15.83,10-.93,2.83-15.16.29-19.57a145.08,145.08,0,0,0-9.24-14.45,16.78,16.78,0,0,1,8.47-7c9.89-3.65,20.22,1.52,28.09,7.3,2.36,1.73,4.65,3.56,6.89,5.46-3.9,10.06-2.48,23.31,2,32.9,3.88,8.41,11.54,19.17,20.65,22.5,10.36,3.79,13.73-9.7,12.62-17.19-1.79-12.11-11.2-22.17-19.38-30.63-3-3.1-6.17-6.29-9.49-9.35a16.92,16.92,0,0,1,11.1-6.92c21.8-4.43,38.17,22.95,43.89,40,1.1,3.28,6.31,1.87,5.2-1.43C295.2,373,278.21,346,254.35,348.16Zm-125,9.13c3.1,2.9,6.74,6.44,7.81,10.68,1.85,7.38-5.15,11.1-11.19,7.3-7.48-4.72-12.44-16.73-8-24.93l.08-.12A31.63,31.63,0,0,1,129.39,357.29Zm70.3,23.49c.63,1.87,1.56,4.39-1,4.45-1.52,0-3.27-2-4.14-2.94a25.41,25.41,0,0,1-5.18-10.74,20,20,0,0,1,0-9.1C193.58,368.11,197.58,374.6,199.69,380.78Zm50.09-4.12c6.39,6.92,13.53,14.86,15.2,24.45.87,4.95.15,13.9-7,10.85-4-1.69-7.85-6.45-10.44-9.79-6.41-8.24-11.91-24.68-8.44-36.21C242.8,369.38,246.37,373,249.78,376.66Z"/><path class="cls-2" d="M544.72,850.67c-1.6-3.09-6.25-.36-4.66,2.72,3.35,6.45,4.11,13.49-.76,19.38-4.19,5.06-10.73,8-16.88,9.91a67.13,67.13,0,0,1-21.4,3,40,40,0,0,1-9.18-1.4c1.92-1.38,3.78-2.79,5.57-4.2,6.53-5.17,9.46-12.8,4.77-20.42-5.1-8.28-15.72-10.42-24.65-11.44a107.16,107.16,0,0,0-17.18-.45,16.11,16.11,0,0,0-4.87-6.94c-7.77-6.5-19.94-7.17-29.56-7.24-14.24-.11-27.63,3.37-40.84,8.43C362.66,850.58,337,863.3,327,886.7c-1.34,3.16,3.3,5.91,4.66,2.73,7.33-17.25,23.82-28,40.1-35.91,18.48-8.92,38.3-15.65,59.06-14.39,7.36.45,17.73,1.21,22.82,7.44a12.49,12.49,0,0,1,1.08,1.56c-4.38.37-8.75.92-13.09,1.56-12.63,1.84-24.45,6.25-36,11.63-7.74,3.62-17.84,9.21-18.51,19-.69,10,9.12,11.63,17,11.58,11.21-.06,22-4.36,31.56-9.84,8.32-4.75,18.36-10.62,23.1-19.32a19.76,19.76,0,0,0,2.47-9.68,104.85,104.85,0,0,1,14.29.31c8.24.79,24.64,3.42,23.47,15.08-.42,4.27-4.06,6.75-7.28,9.08-2.21,1.6-4.45,3.17-6.74,4.64-2.79-.91-5.6-1.83-8.55-2.54-5.76-1.4-17-2.44-20.41,4.05a7.12,7.12,0,0,0,1.1,8c3,3.4,9.11,3,13.15,2.39a42.63,42.63,0,0,0,15.33-5.8,46.4,46.4,0,0,0,7.36,2,60.35,60.35,0,0,0,14.89.55c11.23-.89,23.44-3.93,32.22-11.36C549.24,871.79,550,860.88,544.72,850.67Zm-101,19.87c-7.75,5.52-16.19,10.55-25.27,13.5-5.17,1.68-28.45,6.79-25.76-4.51,2.34-9.8,16-14,24.08-17.28a116.59,116.59,0,0,1,29.37-7.8c3.31-.43,6.64-.79,10-1.05C456.07,860.22,449,866.78,443.77,870.54ZM465.12,889c-3.2-.15-5.83-2.77-1.58-4.22a17.37,17.37,0,0,1,6.12-.75,33.14,33.14,0,0,1,9,1.79A28.34,28.34,0,0,1,465.12,889Z"/><path class="cls-2" d="M249.68,845.21c-21.17-9-45.44-15.81-68.39-9.31-6.41,1.82-12.57,5.51-14.93,11.85-10.43-.51-22.21-.32-31.92,3.91-7.66,3.34-14.34,11.18-11.6,20,1.59,5.16,6.75,9.49,12.07,12.9-.56.13-1.11.26-1.67.36-7.67,1.46-15.92.81-23.49-.85-15-3.3-32-13.25-23-30.7,1.6-3.08-3-5.81-4.65-2.72-4.57,8.81-5,18.52,1.9,26.25,6.73,7.52,17.4,11.19,27.06,12.91a62.12,62.12,0,0,0,30.15-1.56c.84.46,1.66.89,2.41,1.29,6.25,3.33,19.39,8.49,25.65,2.56,5.8-5.49-.1-11.54-5.84-12.86-7.6-1.75-14.4.82-21.33,3.18-2.2-1.4-4.31-2.9-6.35-4.36-3-2.17-7-4.62-7.91-8.49-1.39-5.61,3.33-10.41,7.92-12.64,8.7-4.22,19.74-4.22,29.19-3.88l.43,0c-.15,8.27,6,15.32,12.31,20.16,8.77,6.68,18.67,12.56,29.19,16,8,2.6,21.2,5.26,28.82.19,7.77-5.16,2.68-15.25-2.11-20.42-3.45-3.71-7.93-5.58-12.45-7.69a175.72,175.72,0,0,0-17-7.05,127.66,127.66,0,0,0-31.68-6.13c2-3.32,5.87-5.78,10.33-7,21.64-6.13,44.58.43,64.55,8.91,18.94,8,39.43,19.58,47.86,39.42,1.35,3.18,6,.43,4.65-2.73C291,865.94,269.48,853.66,249.68,845.21Zm-93.42,38.85a18.71,18.71,0,0,1,5.73.4c.89.21,2.15.31,2.83,1,2.08,2-.88,3.45-3.13,3.56a28,28,0,0,1-13.53-3.13A34.38,34.38,0,0,1,156.26,884.06Zm68.44-15a19.23,19.23,0,0,1,8.89,9.41c3,7.83-5.65,8.14-11,8.11-9.94,0-19.46-3.86-28-8.65-7.8-4.37-17.54-9.74-22-17.84a13.34,13.34,0,0,1-1.81-6.62A138.49,138.49,0,0,1,224.7,869Z"/><path class="cls-2" d="M336.05,837.71c-1.8-5-7.36-9.91-13-8.11-4.43,1.41-6.77,6.23-8.78,10.53-2.63-3.83-4.94-8.06-10.7-5.8-7.13,2.81-8.29,12.25-7.4,18.8,1.19,8.79,6.1,16.2,10.64,23.6,2,3.29,5.22,12.61,10.26,7.46,3.08-3.16,5.24-8.37,7.46-12.18s4.45-7.83,6.51-11.84C334.46,853.46,338.83,845.42,336.05,837.71Zm-19.66,37.4c-.52.85-1.89,2.36-2,3.32l0,0c-.91-1.84-2.44-3.72-3.41-5.28-2.91-4.71-6-9.39-7.88-14.62-1.71-4.68-3.55-13.12.35-17.25,4.5-4.77,6.72,3,9.51,5.71a2.52,2.52,0,0,0,1.78.76,2.34,2.34,0,0,0,2.45-1.3c1.62-3,2.82-6.3,4.8-9.06s4.67-3.52,7.24-.85c2.41,2.51,2.68,6.22,2,9.45C329,856.15,321.69,866.37,316.39,875.11Z"/><path class="cls-2" d="M510.85,635.75a25.79,25.79,0,0,0-14.34.47c4.65-7.29,6.8-15.79,4.34-25-3.92-14.71-15.62-27.41-28.77-34.58-26.19-14.27-65.81-6.06-77.93,23.52-7.34,17.9,6.63,34.59,23.69,38.92,15.14,3.85,37.81-1.31,36.87-20.89-.17-3.45-5.56-3.47-5.39,0,1.07,22.24-31.64,18.84-43.1,9.34-6.83-5.66-10.55-14.86-7.76-23.53,2.55-7.92,8.91-14.76,15.6-19.49,26.73-18.86,64.89-8,79,21.26,4.12,8.57,4.91,17.6.07,26-4.05,7.07-10.68,12.7-17.6,16.83-14.41,8.61-31.27,10.95-47.8,10-17.93-1.07-37.24-5.44-53.22-13.84,5.54,0,10.82-1.46,13.43-6,2-3.6,2-6.85-.48-10.2-3.13-4.28-8.09-5-13-5.24-3.47-.17-3.46,5.22,0,5.39,2.94.15,8.16.41,9.3,3.92s-2.4,5.64-5.28,6.18c-5.48,1-11.34,0-16.5-1.83a2.92,2.92,0,0,0-1-.16c-9.15-5.41-18.8-10-29.59-7.45-5.77,1.37-11.39,5.34-12.34,11.53a19.79,19.79,0,0,0,5.86,16.25,25.89,25.89,0,0,0,34.23.46c2.64-2.27-1.19-6.06-3.81-3.82-6.77,5.8-15.48,6.07-23.15,1.83-6.47-3.56-11.93-14-4-19.18,8.21-5.35,20.73-.81,28.28,3.67,7.76,4.6,15,9.73,23.4,13.12,31.72,12.77,74,18.25,103.33-3.17.46-.33.9-.66,1.35-1a2.86,2.86,0,0,0,.54-.34c8.19-6.51,20.06-12.1,29.72-5,4.53,3.31,9,10.5,2.36,14.34a10.83,10.83,0,0,1-8.88,1c-1.83-.67-7.84-5.13-4-7.4,3-1.76.28-6.42-2.72-4.65-7.59,4.48-2.27,13.9,4,16.71,7.11,3.2,18.85-.14,20.35-8.72C527.41,646,518.75,637.82,510.85,635.75Z"/><path class="cls-2" d="M527.94,622.53c4-2.58,6.94-5.94,6.25-10-.81-4.87-8-4.94-11.61-4a16,16,0,0,0-5.78,3c-.07-.13-.11-.27-.19-.4a3.79,3.79,0,0,0-5.56-1.45c-6.67,4-3.5,13.82-5.44,19.93-.93,2.93,3,4.37,4.67,2.4h0c3.07-1.53,5.92,1.73,8.9,2.25a17.32,17.32,0,0,0,7-.52c3.29-.87,7.25-3.86,5.71-7.8A6.62,6.62,0,0,0,527.94,622.53Zm-5.67-8.17c1-.45,4.71-1.78,5.79-.77,1.25,1.18-1.49,2.84-2.39,3.54a29.27,29.27,0,0,1-7.77,4.2,25,25,0,0,0-6,1.41c0-.61,0-1.23,0-1.85a2.92,2.92,0,0,0,4.28-.53A14.93,14.93,0,0,1,522.27,614.36Zm1.2,14.41c-2.78.42-4.49-.54-6.52-1.47.63-.19,1.28-.39,1.95-.61a15.15,15.15,0,0,1,5.64.54C528,628.24,525.9,628.41,523.47,628.77Z"/><path class="cls-2" d="M303,632.93c-10.79-8.78-26.83-2.74-37.47,3.83a2.75,2.75,0,0,0-.7.15c-5.16,1.87-11,2.88-16.5,1.83-2.51-.48-6.08-2.28-5.42-5.42.85-4.1,6.1-4.51,9.44-4.68s3.47-5.56,0-5.39c-4.83.24-9.65.9-12.82,5-2.63,3.37-2.81,6.76-.69,10.47,2.55,4.48,7.66,6,13.07,6a137.49,137.49,0,0,1-37.83,12.08c-16.93,3-34.79,3.15-51.15-2.69A68.55,68.55,0,0,1,145.69,645l-.19-.18c-.73-.58-1.48-1.15-2.23-1.7-7.35-6.07-12.91-14-13.11-23.33-.35-15.87,13.58-30.85,26.54-38.15a52.34,52.34,0,0,1,45.19-3.07c15.94,6.37,35.31,25.1,23.76,43.17-5.71,8.94-17,13.15-27.2,13.32s-21.58-5.28-21-16.91c.16-3.47-5.23-3.46-5.4,0-.8,16.7,16.78,23.65,30.89,22,14.95-1.77,30.12-11.68,31.63-27.81,1.45-15.45-12.11-29.14-24.68-35.93a57.52,57.52,0,0,0-44.4-4.4,62.27,62.27,0,0,0-34.39,27.26c-7.35,12.38-8,25.44-.93,36.93a26.24,26.24,0,0,0-13.39-.66c-8.26,1.77-17.44,10.17-15.88,19.33,1.43,8.37,12.64,11.67,19.7,9,6.55-2.49,12.47-12.34,4.61-17-3-1.77-5.71,2.89-2.72,4.65,3.85,2.27-2.16,6.73-4,7.4a10.85,10.85,0,0,1-8.89-1c-6.68-3.84-2.17-11,2.36-14.34,9.21-6.75,20.43-2,28.55,4.13,24.6,20.75,62.07,18.88,91.4,10.46a121,121,0,0,0,29-12.14c9.39-5.6,19.24-13.14,30.91-11.92,5.7.6,11.7,4.2,10.49,10.77a14.28,14.28,0,0,1-5.49,9.28c-7.84,5.54-17.94,5.91-25.38-.47-2.62-2.24-6.45,1.55-3.81,3.82,9.19,7.87,21.43,8.19,31.51,1.58C307.5,653.63,311.7,640,303,632.93Z"/><path class="cls-2" d="M107.54,634.24c3-.53,5.78-3.8,8.91-2.25h0c1.65,2,5.6.53,4.67-2.4-1.94-6.13,1.23-15.88-5.44-19.93a3.81,3.81,0,0,0-5.32,1,5.73,5.73,0,0,0-.49.82,16.12,16.12,0,0,0-5.72-2.94c-3.7-1-10.73-.89-11.61,4-.75,4.09,2.18,7.45,6.25,10a6.62,6.62,0,0,0-4,3.39c-1.52,3.9,2.42,7,5.71,7.8A17.69,17.69,0,0,0,107.54,634.24Zm-9.05-20.31c.63-1.38,4.06-.27,5.12.12,3.15,1.14,5.29,3.53,7,6.31a2.93,2.93,0,0,0,4.28.53c0,.62,0,1.24,0,1.85a25.08,25.08,0,0,0-6.06-1.41,29.21,29.21,0,0,1-7.76-4.2C100.21,616.46,98,615,98.49,613.93Zm4.79,14.84c-1.74-.26-5.56-.22-1.07-1.54a15,15,0,0,1,5.46-.59h.08c.71.24,1.41.46,2.09.66C107.86,628.23,106.16,629.22,103.28,628.77Z"/><path class="cls-2" d="M333.16,612a8.05,8.05,0,0,0-6.34-6.79,6.18,6.18,0,0,0-4.62.93c-1.45-6.72-5.49-13.52-13-11.4-5.57,1.56-7.83,8.55-8.18,14.56-4.07-1-8.22.92-8.47,6.62-.33,7.68,11.46,14.2,17,17.29a2.48,2.48,0,0,0,2.73-.09,2.57,2.57,0,0,0,1.83-.3C321.34,628.79,334.78,622.27,333.16,612Zm-5.46,3.42c-.45,2.12-2.94,4-4.89,5.35a2.48,2.48,0,0,0-.68-1.23,2.73,2.73,0,0,0-3.82,0c-1,1.26-2.1,2.49-3.22,3.68-.71-4.76,0-9.65-.09-14.5,0-3.46-5.43-3.47-5.39,0,.06,4.19-.37,8.35-.14,12.46-.43-.63-.85-1.28-1.26-1.93-1.85-2.92-6.52-.22-4.65,2.73l1,1.56c-.63-.49-1.27-1-1.88-1.51-1.19-1-2.86-2.24-3.57-3.64-1-2-1.38-6.66,2.79-2.72,2.1,2,4.89-.06,4.5-2.62a16.59,16.59,0,0,1,2-10.51c2.65-4.22,6.93-.72,8.08,2.39a19.21,19.21,0,0,1,1,7.92c-.13,2.7,3.75,3.64,5,1.36C324.09,611.29,328.47,611.81,327.7,615.44Z"/><path class="cls-2" d="M1056,129.38a73.41,73.41,0,0,1-12.9-.78,3,3,0,0,0-.73,0c-2.68-1.49-5.45-2.86-8.18-4.17,2.66-1.07,5.32-2.16,8-3.29,3.18-1.36.44-6-2.72-4.66-5.29,2.26-10.63,4.38-16,6.4,1-2.44,2-4.93,2.76-7.45,5.16-2,10.24-4.15,15.41-6.09,3.22-1.21,1.82-6.42-1.44-5.2-4.17,1.57-8.28,3.29-12.43,4.94a28.18,28.18,0,0,0,.32-6.62c-.25-3.44-5.65-3.47-5.39,0,.59,7.92-3.05,15.66-6,22.9A389.12,389.12,0,0,1,923.84,146q-10.37,1-20.76,1.43a147.11,147.11,0,0,0,17.75-21.94c6-.35,11.91-.9,17.87-1.31,7.47-.51,15.55-1.42,22.39,2.26,3,1.64,5.78-3,2.72-4.66a32.89,32.89,0,0,0-12.28-3.51,35.87,35.87,0,0,0,3.9-6.24c1.5-3.11-3.15-5.84-4.66-2.72a31.78,31.78,0,0,1-5.84,8.41,3.25,3.25,0,0,0-.23.29c-6.78.11-13.75,1.13-20.22,1.77,3.62-5.89,6.93-12,9.95-18.12,1.52-3.1-3.13-5.84-4.66-2.72a185,185,0,0,1-21.35,34.37,96.91,96.91,0,0,0-1.91-11.89,17,17,0,0,0,2-6.57c.48-4.42.95-8.72,1.82-13.09.68-3.39-4.52-4.84-5.2-1.44s-1.31,6.71-1.68,10.11q-1.41-4.12-3.15-8.26c-1.34-3.18-6-.44-4.65,2.72q1.7,4,3,8l-1.19-1a41.7,41.7,0,0,0-9.1-5.38c-3.15-1.34-5.9,3.3-2.72,4.65a41.49,41.49,0,0,1,10.1,6.21c1.79,1.45,3.51,3.47,5.51,4.79a90,90,0,0,1,2.19,16.56,1.86,1.86,0,0,0,.05.34c-2.68,3-5.48,5.83-8.44,8.53q-14.64.33-29.28-.46c-20-1.07-40.88-2.83-59.28-11.46-3.13-1.46-5.87,3.18-2.72,4.66,16.18,7.58,33.91,10.14,51.59,11.51a2.9,2.9,0,0,0,.89.26c14.11,1.73,25.27,8.05,37,15.69l2.11,1.39c0,.05,0,.09,0,.15q2.25,5.64,4.18,11.41a29.9,29.9,0,0,1-10.09,10.55c-2.93,1.84-.23,6.5,2.72,4.65a35.62,35.62,0,0,0,9.64-8.86c1.17,3.18,2.22,6.67,1.51,9.17-1,3.34,4.24,4.77,5.19,1.43,1.22-4.24-.87-9-2.09-13-1-3.49-2.2-6.93-3.44-10.34,8.54,5.78,17,11.67,25.79,17.06,3,1.81,5.67-2.85,2.72-4.66q-3.28-2-6.52-4.17a54.24,54.24,0,0,0,15.21-3.23c3.25-1.15,1.85-6.36-1.43-5.2-7.18,2.55-14.79,4.07-22.36,2.56-12.35-8.63-24.7-17.7-38.25-23.68a390.56,390.56,0,0,0,45.63-1.69,394.79,394.79,0,0,0,48.92-7.83,3.62,3.62,0,0,0,.35.13,189,189,0,0,1,29.38,10.78l1.35.64.07.11c5.28,6.09,12.34,12.88,13.64,21.12.54,3.41,5.73,2,5.2-1.44a28.74,28.74,0,0,0-5.37-12,59,59,0,0,1,8.12,7.07c2.39,2.53,6.19-1.29,3.81-3.81a62.64,62.64,0,0,0-8.77-7.62,39.63,39.63,0,0,0,12.37-4.68c3-1.73.3-6.39-2.72-4.65a31.28,31.28,0,0,1-17.35,4.43q-3.72-2.08-7.63-3.85a225.75,225.75,0,0,0-22-8.74,399.44,399.44,0,0,0,44.19-14c8.34,4,17.79,8,24.09,15,2.33,2.57,6.14-1.25,3.81-3.82a37.07,37.07,0,0,0-3.74-3.56c1.51.05,3,.08,4.48,0C1059.5,134.68,1059.52,129.29,1056,129.38Z"/><path class="cls-2" d="M919.11,200.08a3,3,0,1,0-3.77,1.86A3,3,0,0,0,919.11,200.08Z"/><path class="cls-2" d="M903,203.59a3,3,0,1,0,1.86,3.77A3,3,0,0,0,903,203.59Z"/><path class="cls-2" d="M889.05,183.67a3,3,0,1,0-3.76,1.86A3,3,0,0,0,889.05,183.67Z"/><path class="cls-2" d="M889,198.87a3,3,0,1,0,1.87,3.76A3,3,0,0,0,889,198.87Z"/><path class="cls-2" d="M926.55,168.74a3,3,0,1,0,3.76-1.86A3,3,0,0,0,926.55,168.74Z"/><path class="cls-2" d="M939.06,184.08a3,3,0,1,0,1.87,3.76A3,3,0,0,0,939.06,184.08Z"/><path class="cls-2" d="M934.63,197.2A3,3,0,1,0,936.5,201,3,3,0,0,0,934.63,197.2Z"/><circle class="cls-2" cx="949.19" cy="178.94" r="2.97" transform="translate(-5.82 323.66) rotate(-19.29)"/><path class="cls-2" d="M945.52,191.92a3,3,0,1,0,1.86,3.77A3,3,0,0,0,945.52,191.92Z"/><path class="cls-2" d="M1030.89,139.77a3,3,0,1,0,3.3,2.59A3,3,0,0,0,1030.89,139.77Z"/><path class="cls-2" d="M1039.37,160.86a3,3,0,1,0-2.59,3.31A3,3,0,0,0,1039.37,160.86Z"/><path class="cls-2" d="M1007.84,168.61a3,3,0,1,0,3.31,2.59A3,3,0,0,0,1007.84,168.61Z"/><path class="cls-2" d="M1031,173.29a3,3,0,1,0,3.31,2.59A3,3,0,0,0,1031,173.29Z"/><path class="cls-2" d="M1041.81,168.64a3,3,0,1,0,3.31,2.58A3,3,0,0,0,1041.81,168.64Z"/><path class="cls-2" d="M1019.32,183.76a3,3,0,1,0,3.31,2.59A3,3,0,0,0,1019.32,183.76Z"/><path class="cls-2" d="M1006.56,179.46a3,3,0,1,0,3.31,2.58A3,3,0,0,0,1006.56,179.46Z"/><path class="cls-2" d="M1019,142.6a3,3,0,1,0,3.31,2.58A3,3,0,0,0,1019,142.6Z"/><path class="cls-2" d="M1040.93,151.87a3,3,0,1,0-3.31-2.58A3,3,0,0,0,1040.93,151.87Z"/><path class="cls-2" d="M1063.56,135.51a3,3,0,1,0,3.31,2.59A3,3,0,0,0,1063.56,135.51Z"/><path class="cls-2" d="M1052.32,146.79a3,3,0,1,0,3.3,2.59A3,3,0,0,0,1052.32,146.79Z"/><path class="cls-2" d="M1048.39,121.48a3,3,0,1,0,2.59-3.3A3,3,0,0,0,1048.39,121.48Z"/><path class="cls-2" d="M1070.92,121.48a3,3,0,1,0-2.59,3.31A3,3,0,0,0,1070.92,121.48Z"/><path class="cls-2" d="M1009,114.47a3,3,0,1,0,2.59-3.31A3,3,0,0,0,1009,114.47Z"/><path class="cls-2" d="M1008.65,103.27a3,3,0,1,0-3.31-2.59A3,3,0,0,0,1008.65,103.27Z"/><path class="cls-2" d="M1017.63,107.68a3,3,0,1,0-3.3-2.59A3,3,0,0,0,1017.63,107.68Z"/><path class="cls-2" d="M1027.64,92.09a3,3,0,1,0-3.31-2.59A3,3,0,0,0,1027.64,92.09Z"/><path class="cls-2" d="M1029.6,99.24a3,3,0,1,0,2.59-3.3A3,3,0,0,0,1029.6,99.24Z"/><path class="cls-2" d="M1045.5,113.73a3,3,0,1,0,2.59-3.31A3,3,0,0,0,1045.5,113.73Z"/><path class="cls-2" d="M1018.78,95a3,3,0,1,0-3.31-2.59A3,3,0,0,0,1018.78,95Z"/><path class="cls-2" d="M1045.58,96.92a3,3,0,1,0-3.31-2.59A3,3,0,0,0,1045.58,96.92Z"/><path class="cls-2" d="M922.32,209.13a3,3,0,1,0,1.86,3.76A3,3,0,0,0,922.32,209.13Z"/><path class="cls-2" d="M945.16,169.33a3,3,0,1,0-3.77,1.86A3,3,0,0,0,945.16,169.33Z"/><path class="cls-2" d="M956.59,104.77a3,3,0,1,0-1.86-3.76A3,3,0,0,0,956.59,104.77Z"/><path class="cls-2" d="M945.75,104.25a3,3,0,1,0,3.76-1.87A3,3,0,0,0,945.75,104.25Z"/><path class="cls-2" d="M959.25,112.72a3,3,0,1,0,3.76-1.87A3,3,0,0,0,959.25,112.72Z"/><path class="cls-2" d="M960,129.15a3,3,0,1,0,1.87,3.76A3,3,0,0,0,960,129.15Z"/><path class="cls-2" d="M969.88,124.66a3,3,0,1,0,1.86,3.76A3,3,0,0,0,969.88,124.66Z"/><path class="cls-2" d="M967.93,121.14a3,3,0,1,0-1.86-3.77A3,3,0,0,0,967.93,121.14Z"/><path class="cls-2" d="M933.73,107.24a3,3,0,1,0,3.76-1.87A3,3,0,0,0,933.73,107.24Z"/><path class="cls-2" d="M923.35,98.48a3,3,0,1,0-1.86-3.76A3,3,0,0,0,923.35,98.48Z"/><path class="cls-2" d="M933.33,93.78A3,3,0,1,0,931.46,90,3,3,0,0,0,933.33,93.78Z"/><path class="cls-2" d="M940.4,101.1a3,3,0,1,0-1.86-3.76A3,3,0,0,0,940.4,101.1Z"/><path class="cls-2" d="M943.59,91.64a3,3,0,1,0-1.86-3.76A3,3,0,0,0,943.59,91.64Z"/><path class="cls-2" d="M894.52,95a3,3,0,1,0-1.86-3.77A3,3,0,0,0,894.52,95Z"/><path class="cls-2" d="M893.39,121.1a3,3,0,1,0-3.77,1.86A3,3,0,0,0,893.39,121.1Z"/><path class="cls-2" d="M878.89,119.34a3,3,0,1,0,3.77-1.87A3,3,0,0,0,878.89,119.34Z"/><path class="cls-2" d="M876.45,108a3,3,0,1,0,3.76-1.86A3,3,0,0,0,876.45,108Z"/><path class="cls-2" d="M888.51,95.11a3,3,0,1,0,1.86,3.76A3,3,0,0,0,888.51,95.11Z"/><path class="cls-2" d="M876.25,99.32a3,3,0,1,0-1.87-3.76A3,3,0,0,0,876.25,99.32Z"/><path class="cls-2" d="M908.26,95.51a3,3,0,1,0-1.86-3.77A3,3,0,0,0,908.26,95.51Z"/><path class="cls-2" d="M916.41,109.74a3,3,0,1,0-1.86-3.76A3,3,0,0,0,916.41,109.74Z"/><path class="cls-2" d="M900.73,85.91a3,3,0,1,0-1.87-3.76A3,3,0,0,0,900.73,85.91Z"/><path class="cls-2" d="M886.3,88.1a3,3,0,1,0-1.86-3.77A3,3,0,0,0,886.3,88.1Z"/><path class="cls-2" d="M917.81,191.52a3,3,0,1,0-3.76,1.86A3,3,0,0,0,917.81,191.52Z"/><path class="cls-2" d="M568.12,1364.65c-2.49-10.15-13.54-17.33-24.23-18.08-3-1.14-5.32-2.35-6.93-5.21-2.62-4.62-4.38-11.11.58-14.78,3.69-2.74,10.51-4.11,14.51-1.67a12.45,12.45,0,0,1,4.11,4.71c2.26,4.12-3.14,8.72-6.19,2.56,1.54,3.11,6.19.38,4.66-2.72a6,6,0,0,0-10.22-.81c-2.93,3.76-.93,9,2.81,11.23,4.42,2.66,10.36.81,13.7-2.89,3.64-4,.7-9.69-2.23-13.23-7.23-8.71-24.15-6.53-28.92,3.93-2.34,5.12,0,11.73,2.53,16.39a14.17,14.17,0,0,0,2.73,3.51,17.65,17.65,0,0,0-9.52,7.27c-4.55,7-4.53,16.21,2.16,21.8,5.57,4.64,17.12,7.8,22.51,1.23,5.51-6.73,1.72-17.44-6.53-19.62-7.37-2-14.91,4.26-11,11.88,1.6,3.09,6.26.36,4.66-2.72-3.08-5.94,7.31-4.17,9.22-.54,3.4,6.48-3.33,10-9,8.86-10.18-2.08-12.61-12.78-5.91-20.11,3-3.23,7-4.13,11.22-3.74a2.77,2.77,0,0,0,.88.1,31.86,31.86,0,0,1,11.68,4.31c7.51,4.54,9.93,13.57,6.1,21.44-7.28,15-27.24,15.8-41.12,11.43-14.58-4.59-26.95-15-36.88-26.33-3.3-8.54-11.4-15.82-20.06-17.59-10.72-2.19-21,5.77-20.87,16.72.11,10.17,7.14,16.85,17.32,13.87,3.32-1,1.91-6.18-1.43-5.2-6.21,1.82-9.88-1.2-10.44-7.44s3.26-11.41,9.6-12.63c8.78-1.69,18.59,7,21.18,15,2.81,8.59-1.77,17.56-9.09,22.27-8.07,5.19-18.75,3.8-27.56,1.47A89.7,89.7,0,0,1,416,1377.14c-15.28-10-27.42-24.32-43-33.81-14.52-8.84-31.25-9.75-45,1-11.57,9-14.27,24.92-7.61,38s22.79,20.85,37,17.15c6.42-1.68,14.52-4.36,17.59-10.81s.32-14.23-3-20.08c-6.26-11-27.32-19.09-36-6.1-3.37,5.06-1.95,13.65,1.76,18.16,4.12,5,11.7,5.36,15.35-.3,1.88-2.92-2.78-5.63-4.66-2.72s-6,.76-7.25-1.48a13.42,13.42,0,0,1-1.59-6.42c0-5,4.11-8,8.8-8.15,7.72-.3,15,2.91,18.91,9.73,2.27,3.94,4.45,9.1,3.12,13.63-1.53,5.23-7.09,7-11.86,8.55-8.77,2.81-16.54,1.71-24.16-3.57-13.84-9.59-17-30.81-2.87-41.54,16.78-12.74,35-4.58,49.42,7.42,12.36,10.3,24,21.43,38,29.52,12.82,7.4,29.24,13.62,44.26,10.79,11.31-2.13,21-12.12,21.76-23.74,13,13.14,29.72,23.89,48.53,24.56C551.08,1397.56,573.16,1385.21,568.12,1364.65Z"/><path class="cls-2" d="M265.49,1338c-16.67,5.23-28.86,19.32-42.09,30-14.92,12-33,23.26-52.81,23.36-10.19.06-20.16-5.71-22.83-16.07s4.84-19.58,13.79-23.67c7.57-3.46,16.92,1,17.35,9.63.35,6.84-3.41,11.52-10.49,9.45-3.33-1-4.76,4.22-1.43,5.2,20.37,6,23.1-25.71,4.55-30.26-11.52-2.82-23.71,6.37-28,16.76-.08.18-.14.36-.21.54-9.73,11.1-21.77,21.27-36,26s-34.51,4.18-42-11.13c-3.65-7.42-1.72-16.4,5.33-21A32.23,32.23,0,0,1,83.06,1352a2.47,2.47,0,0,0,1.17-.14c3.91-.34,7.7.46,10.51,3.25,7.25,7.22,5.07,18.43-5.4,20.66-5.73,1.22-12.45-2.21-9-8.86,2-3.76,12.17-5.15,9.22.54-1.6,3.08,3,5.81,4.65,2.72a8.34,8.34,0,0,0-7.69-12.28,12.43,12.43,0,0,0-12.13,14.75c1.7,9.3,12.17,10.54,19.68,7.26s12.16-10.52,10.11-18.77a19.71,19.71,0,0,0-12-13.8,13.77,13.77,0,0,0,2.44-3.23c2.52-4.6,4.75-11,2.68-16.06-4.41-10.82-21.85-13-29.06-4.26-2.86,3.45-5.78,8.9-2.44,13,3.07,3.74,8.93,5.73,13.36,3.48,4.16-2.11,6.3-7.56,3.35-11.55a6,6,0,0,0-10.21.81c-1.53,3.09,3.11,5.83,4.65,2.72-3.05,6.16-8.47,1.55-6.18-2.56a12.7,12.7,0,0,1,4.11-4.71c4-2.43,10.85-1,14.5,1.67,5,3.71,3.2,10.12.59,14.78-1.58,2.82-3.88,4-6.79,5.15-8.31,1-17.85,5.46-22,12.45-10.88,18.17,7.76,35.51,24.92,37.64,21.4,2.66,41.17-9.48,55.89-24.31.57,8.33,5.72,16.18,13.15,20.59,12.47,7.41,29.45,3.11,41.9-2.13,14.9-6.28,27.63-16.49,39.75-27,12.62-10.93,27.75-25.59,46.07-21.54,7.63,1.68,16.11,7.15,19.78,14.23,3.56,6.83,2.36,18-1.45,24.5-4.44,7.61-14,14-22.84,14.34-4.71.2-9.77-1.49-14.08-3.26-6-2.47-9.42-6.75-7.65-13.47,2.4-9.07,8.95-16.14,18.59-16.9,4.28-.34,10.38.44,11.88,5.33a12.51,12.51,0,0,1-.43,7c-.89,2.73-5.26,8.09-8.15,3.6-1.87-2.9-6.54-.2-4.65,2.72a9.1,9.1,0,0,0,13,2.54c4.8-3.3,6.66-10.46,5.73-16-2.37-14.14-22.09-12.23-30.82-5.82-10.37,7.6-16.69,26.48-3.23,34.14,13.89,7.9,29.38,6.63,41.2-4.15,10.09-9.21,14.38-27.5,6.38-39.37C297.27,1338.7,280.18,1333.36,265.49,1338Z"/><path class="cls-2" d="M1080.77,1381.06c-2.16-3.77-8-.37-5.82,3.41,7.94,13.86-8.58,27.11-20.72,29.71a32,32,0,0,1-32.67-12.74,24.68,24.68,0,0,0,5.41-12.94c.5-5.42-1.31-14.26-7.05-16.63-5.43-2.24-9.21,2.78-10.44,7.49-1.82,7,.18,14.41,3.32,20.68l.37.71c-9.44,8.82-26,13.09-37.47,13.2a93.23,93.23,0,0,1-31.6-5.57,88.29,88.29,0,0,0,13.68-9.75c14.72-12.69,26.56-28.31,37.57-44.24,8.27-12,10.81-30.45,2-42.9-15.51-21.92-49.15-13.72-62.45,6.16-6.48-10.05-16.11-18.07-28.25-20.05-11.18-1.83-22.64,2.18-29.5,11.35-8.75,11.68-8.7,29.64-1.51,42.09,9.18,15.88,22.35,31.53,35.76,44a100.23,100.23,0,0,0,17.6,13.22,99.62,99.62,0,0,1-15.46,4c-15.69,2.88-30.4,1.15-44.78-6.06a41.12,41.12,0,0,1-8.59-5.59,34.92,34.92,0,0,0,4.24-14c.35-5.13-1.24-12.83-6.79-14.73-6.4-2.2-9.93,5.26-11,10.31-1.45,6.9.87,13.87,5.11,19.32A32.78,32.78,0,0,1,826,1414.9c-13.86,0-37.28-13.73-27.71-30.43,2.17-3.78-3.66-7.18-5.83-3.41-8.73,15.24,4.13,31.79,18.25,37.57a38.92,38.92,0,0,0,44.57-10.79c.39-.46.76-1,1.13-1.44,13.73,12,35.32,15.73,52.62,13.39a98.74,98.74,0,0,0,27.59-7.61,91.22,91.22,0,0,0,22.27,6.78c19.17,3.37,39.52.7,55.71-10.92.74-.53,1.47-1.09,2.17-1.68a39.11,39.11,0,0,0,41.19,13.86C1073.91,1415.87,1090.53,1398.08,1080.77,1381.06Zm-227.39,9c-.37-1.56-1.14-9.48,1.38-10.75,3.23-1.62,3,6.81,2.76,8.26a29.15,29.15,0,0,1-2.08,7.47A17.86,17.86,0,0,1,853.38,1390.1Zm53.77-8.95a237.14,237.14,0,0,1-24.74-32.05c-6.21-9.7-7.28-24.07-1.22-34.12,5.07-8.41,14.76-12.34,24.34-10.77,11.81,1.93,20.46,10.74,25.92,20.88a2.55,2.55,0,0,0,1.08,1.81c1.35,1.56,3.58,1.1,4.83-.28l0,0v0a3.75,3.75,0,0,0,.79-1.18c6.84-16.5,28.84-24.93,45-17.14,9.46,4.55,13.26,14,12.67,24.11-.81,13.79-10,24.25-18.1,34.76a173.3,173.3,0,0,1-29.06,30.29,66.49,66.49,0,0,1-12.4,7.77C925.12,1399.71,915.51,1390.24,907.15,1381.15Zm108.65.73c.86-4,2.54-3.7,3.87.44s.41,8.73-1.77,12.56l-.06.1C1016,1390.87,1014.88,1386.15,1015.8,1381.88Z"/><polygon class="cls-2" points="804.92 1128.14 804.91 1128.14 804.92 1128.15 804.92 1128.14"/><path class="cls-2" d="M1918.16,162a20.76,20.76,0,0,1-8.71,8.54c3-4.34,5.13-10.69,2.4-15.54s-10.67-6.18-15.58-3.93c-5.67,2.59-5.39,8.75-2.1,13.2,2,2.76,6.72.07,4.66-2.72-3.77-5.09,2.25-7.06,6-5.53,4.24,1.73,2.82,6.68,1.22,9.76-2.62,5.06-7.48,7.65-13,8.13l-.19,0a45.88,45.88,0,0,1-9.14-1.21c-9.9-2.36-18.93-7.27-27.62-12.56,18.62-2.48,34.68-12.29,46.51-26.79,2.17-2.67-1.62-6.5-3.81-3.81-11.77,14.42-27.87,24.18-46.64,25.65-1.32.1-2.64.17-4,.2a2.19,2.19,0,0,0-1.32,0,100,100,0,0,1-18.75-1.68,23.44,23.44,0,0,0-1.72-11.83,21.7,21.7,0,0,0-2.13-3.73c6.1,1.9,12.14,3.58,18,4.12,10.42,1,22.29,2.13,29.65-6.73,3.82-4.59,7.47-15.1,1.19-19.46-2.86-2-5.55,2.69-2.72,4.66.66.45.65,3.54.59,4.29a13.62,13.62,0,0,1-3.85,7.81c-4.29,4.51-9.66,4.53-15.54,4.45-12.25-.16-23-3.17-34.49-7-17.2-5.71-34.86-7.79-48.69,5.92-15.28-5-30.59-10-46.11-13.91-17.19-4.39-35.52-6.1-52.16,1.23-11,4.87-20,12.82-27,22.35-4.07,5.14-7.15,11.46-10.33,16.57a2.52,2.52,0,0,0,1.36,3.77c1.19,1,3,1.16,3.86-.66a93,93,0,0,1,5.24-10.11,66.26,66.26,0,0,1,5.42-7.76c4.38-5.28,10.87-6.7,17.47-6.62a55.44,55.44,0,0,1,19.61,4.33,2.57,2.57,0,0,0,.72.37c9.24,3,14,13.58,21.2,19.52,6.9,5.65,15.78,9.52,24.51,5.61a20.12,20.12,0,0,0,7.74-6.28,23.13,23.13,0,0,0,18.88-10.87c1.92-2.89-2.74-5.6-4.66-2.72a17.53,17.53,0,0,1-11.32,7.81,14.34,14.34,0,0,0,0-8.43c-2.31-7.14-11.87-12.41-18.19-6.95-2.63,2.27,1.2,6.07,3.81,3.81,2.08-1.79,6.09.28,7.48,1.75a8.52,8.52,0,0,1,2.08,6.71,10.64,10.64,0,0,1-1.06,3.57,50.6,50.6,0,0,1-14.72-3.28c-10.86-3.87-20.84-9.77-31.42-14.28a21.13,21.13,0,0,0-2.84-1.17l-.13,0c-.43-.17-.86-.36-1.3-.52-8.3-3.14-17.72-5.33-26.65-4a56.93,56.93,0,0,1,12.39-7.59c18.83-8.36,39.68-3.81,58.59,1.84,21.22,6.34,42.3,13.2,63.44,19.81,8.89,2.78,18,5.63,27.21,7.7-2.21,5.55-6.87,10.7-13.43,10.42a16.26,16.26,0,0,1-9.14-3.56c-2.77-2.54-2.65-5.86-1.86-9.23s-4.4-4.82-5.2-1.43c-1.93,8.27.92,14.36,8.79,17.75a18.93,18.93,0,0,0,22.69-5.7A23.33,23.33,0,0,0,1827,159a102.37,102.37,0,0,0,19.9,1.85c12.84,8,26.41,16.42,41.73,18.23,12.84,1.51,27.69-2.28,34.18-14.35C1924.46,161.67,1919.81,158.94,1918.16,162Zm-185.35,2.34a14.64,14.64,0,0,1-1.43,1c-7.14,4.21-14.88.47-20.58-4.35a57.66,57.66,0,0,1-6.68-6.95l.39.19C1712.79,158.23,1723,163,1732.81,164.34Zm53.78-22.22c-4.11-1.29-8.21-2.61-12.31-3.93,9.1-7.66,19.29-8,29.82-5.79a2.76,2.76,0,0,0,.63.25c4.79,1.23,9.87,2.82,13.41,6.46a16.87,16.87,0,0,1,4.59,13.6C1810.45,150,1798.38,145.81,1786.59,142.12Z"/><path class="cls-2" d="M1600.08,146.37a69,69,0,0,0-21.87-20.06c-15.28-8.64-32.72-9.15-49.63-5.78-18.3,3.64-36.24,9.93-54.06,15.78-13.83-13.76-31.52-11.68-48.73-6-11.13,3.7-21.61,6.78-33.46,7-5.86.1-11.57.42-16.07-3.92a14,14,0,0,1-4.27-7.68c-.11-.92-.31-4.37.51-4.94,2.83-2,.14-6.64-2.72-4.66-6,4.17-2.87,14.28.71,18.88,7.33,9.4,19.38,8.3,30.12,7.31a89.51,89.51,0,0,0,17.93-4.1,20.68,20.68,0,0,0-1.71,3,23.8,23.8,0,0,0-2.07,12.61,107.94,107.94,0,0,1-16,1.64c-1,0-1.92,0-2.87,0a2.19,2.19,0,0,0-1.11,0c-20.17-.67-37.79-10-50.68-25.83-2.19-2.69-6,1.14-3.81,3.81,10.83,13.28,25.36,23,42.34,26.15,1.39.27,2.77.47,4.16.65-8.69,5.28-17.72,10.19-27.61,12.55a45,45,0,0,1-9.11,1.21l-.22,0c-5.54-.48-10.41-3.07-13-8.13-1.36-2.64-2.84-7.27.2-9.45,1-.73,3.32-.9,4.52-.88,2.11-.44,3,.45,2.77,2.65.94,1.36.86,2.51-.26,3.45-2.06,2.79,2.61,5.48,4.66,2.72,3.28-4.44,3.59-10.61-2.1-13.2-4.93-2.26-12.79-1-15.58,3.93s-.6,11.22,2.41,15.55a20.75,20.75,0,0,1-8.72-8.55c-1.65-3.06-6.3-.34-4.66,2.72,6.5,12.07,21.35,15.86,34.19,14.35,15.34-1.82,28.94-10.24,41.79-18.27a105,105,0,0,0,19.82-1.85,23.25,23.25,0,0,0,3.71,7.16,18.88,18.88,0,0,0,21.86,6c8.3-3.31,11.67-9.36,9.62-18.1-.79-3.38-6-1.95-5.19,1.43,1.68,7.21-2.67,11.42-9.61,12.55s-12.46-4.16-14.84-10.22c6.17-1.37,12.27-3.08,18.25-4.89,21.22-6.41,42.33-13.22,63.49-19.83,19.76-6.17,41.41-13.16,62-6.67a55.29,55.29,0,0,1,17.84,9.64c-8.89-1.34-18.38.9-26.58,4-.44.16-.87.35-1.31.52l-.12,0a21.88,21.88,0,0,0-2.8,1.15c-10.31,4.39-20,10.09-30.54,14-5,1.85-10.47,3.43-15.69,3.62a11.83,11.83,0,0,1-.86-2.22c-1.07-4.13,4.11-14.39,9.4-9.82,2.62,2.26,6.45-1.53,3.82-3.81-6.24-5.39-15.56-.32-18.06,6.63a14.2,14.2,0,0,0-.18,8.76,17.55,17.55,0,0,1-11.32-7.82c-1.92-2.87-6.59-.18-4.66,2.72a23.12,23.12,0,0,0,18.88,10.87,20.12,20.12,0,0,0,7.74,6.28c8.37,3.75,17.1.34,23.84-5.07a63.36,63.36,0,0,0,10.36-10.6c3.24-4.15,6.29-7.77,11.51-9.46a3.27,3.27,0,0,0,.7-.35,56.85,56.85,0,0,1,18.69-4.34c6.85-.25,13.85,1.11,18.41,6.61a60,60,0,0,1,4.38,6.09,94.32,94.32,0,0,1,6.28,11.78c.8,1.81,2.67,1.69,3.86.66a2.53,2.53,0,0,0,1.36-3.77C1607,157.53,1604,151.42,1600.08,146.37Zm-179.95,6.39a16.74,16.74,0,0,1,4-13.09c3.58-4,8.91-5.72,14-7a3,3,0,0,0,.63-.25c10.54-2.17,20.76-1.87,29.88,5.83l-4.29,1.36C1449.91,144.1,1435.16,149.56,1420.13,152.76ZM1532.05,161c-5.67,4.8-13.48,8.58-20.58,4.35a14.52,14.52,0,0,1-1.42-1c9.79-1.37,20-6.11,28.28-10.12l.39-.19A57.61,57.61,0,0,1,1532.05,161Z"/><path class="cls-2" d="M493.75,1585.68c-7.76-3.36-16.37-3.73-24.66-2.67-10.28,1.32-20.3,4.5-30.29,7.15-9.08,2.4-19.17,3.94-27.27,8.94a2.61,2.61,0,0,0-1.12,1.33q-14.34.19-28.67.3a41.94,41.94,0,0,0,4.6-1.64,64.07,64.07,0,0,0,11.29-6.72c7.31-5.14,14.55-10.39,20.36-17.26s12.23-15.13,16.5-23.23c2.88-5.47,2.56-11.78-3.07-15.31s-14.5-3.53-20.74-1.67c-7.92,2.36-13.52,9-18.37,15.31a169.41,169.41,0,0,0-14.9,24.09c-4.48,8.48-8.53,17.15-10.62,26.54q-14.61.08-29.21.06c-3.47,0-3.48,5.39,0,5.39,6,0,11.92,0,17.88,0a3,3,0,0,0,.48.86l.44.55c1.61,4.39,2.45,9,4.31,13.33a64.07,64.07,0,0,0,6.72,11.29c5.14,7.31,10.39,14.55,17.26,20.35s15.13,12.24,23.24,16.5c5.47,2.88,11.77,2.56,15.3-3.06s3.54-14.51,1.68-20.74c-2.37-7.93-9-13.53-15.31-18.37a171.05,171.05,0,0,0-24.1-14.91c-4-2.1-8-4.1-12.13-5.86q19-.12,37.92-.39a125.76,125.76,0,0,0,55.39,12.61,111.3,111.3,0,0,0,26.59-3.12c6.7-1.71,14.25-5.89,14.15-13.83C507.3,1593.84,500.08,1588.42,493.75,1585.68ZM391,1561.44c7.51-11.71,19.58-28,35.87-21.1,9.43,4-1.28,15.12-4.7,20.09-4.34,6.31-8.81,12.48-14.56,17.6A126.75,126.75,0,0,1,389,1591.67a35.16,35.16,0,0,1-5.05,2.47c.64-.66,1.28-1.32,1.88-2,4.22-4.86,8-10.15,11.95-15.24,6.9-8.94,12.1-20,20.13-27.88,2.48-2.44-1.33-6.25-3.81-3.81-7.85,7.72-12.74,18.2-19.4,26.93-3.95,5.17-7.84,10.45-12,15.43a65.1,65.1,0,0,1-9,8.48C377.46,1583.76,384.19,1572.09,391,1561.44Zm7.32,64.23c11.71,7.51,28,19.58,21.1,35.87-4,9.43-15.12-1.27-20.09-4.69-6.31-4.34-12.48-8.81-17.6-14.56a126.75,126.75,0,0,1-13.64-18.66,35,35,0,0,1-2.49-5.12c.9.9,1.82,1.77,2.8,2.6,4.84,4.09,10,7.85,15,11.72,8.91,6.85,22.34,12.83,26.49,24,1.2,3.22,6.41,1.82,5.2-1.44-4.05-10.88-14-16.22-22.94-22.68-6.24-4.53-12.38-9.31-18.39-14.15a70.38,70.38,0,0,1-10-10.24C376.07,1612.14,387.71,1618.85,398.34,1625.67ZM481.19,1612a118.49,118.49,0,0,1-56.7-6.43q21.22-.34,42.46-.85c3.46-.08,3.47-5.47,0-5.39-15,.38-30.05.65-45.08.89,4.73-1.62,9.75-2.62,14.49-3.88,7.47-2,14.91-4.07,22.42-5.89,8-1.94,16.27-3.45,24.47-2.22,6.46,1,18.68,5,18.75,13.2C502.09,1610.16,487.34,1611.22,481.19,1612Z"/><path class="cls-2" d="M289.16,1600.9q-14.61,0-29.21-.06c-2.09-9.39-6.14-18.06-10.62-26.54a170.38,170.38,0,0,0-14.91-24.09c-4.84-6.34-10.44-13-18.37-15.31-6.24-1.87-15.07-1.9-20.74,1.67s-5.94,9.84-3.06,15.31c4.26,8.1,10.59,16.25,16.5,23.23s13,12.12,20.35,17.26a64.07,64.07,0,0,0,11.29,6.72,42.86,42.86,0,0,0,4.61,1.64q-14.34-.11-28.68-.3a2.59,2.59,0,0,0-1.11-1.33c-8.1-5-18.19-6.54-27.27-8.94-10-2.65-20-5.83-30.3-7.15-8.28-1.06-16.9-.69-24.65,2.67-6.33,2.74-13.55,8.16-13.65,15.79-.1,7.94,7.44,12.12,14.15,13.83a111.24,111.24,0,0,0,26.59,3.12,125.72,125.72,0,0,0,55.38-12.61q19,.26,37.92.39c-4.12,1.76-8.14,3.76-12.13,5.86A170.38,170.38,0,0,0,217.16,1627c-6.33,4.84-12.95,10.44-15.31,18.37-1.86,6.24-1.89,15.07,1.67,20.74s9.84,5.94,15.31,3.06c8.1-4.26,16.25-10.59,23.24-16.5s12.11-13,17.25-20.35A64.07,64.07,0,0,0,266,1621c1.86-4.31,2.71-8.94,4.31-13.33l.45-.55a2.92,2.92,0,0,0,.47-.86c6,0,11.93,0,17.89,0C292.63,1606.29,292.63,1600.9,289.16,1600.9Zm-51.4-9.23a128.36,128.36,0,0,1-17.95-13c-5.83-5.05-10.37-11.12-14.73-17.43-3.53-5.1-14.72-16.81-5.23-20.87,15.89-6.79,27.92,8.88,35.36,20.3,7.06,10.84,14,22.85,17.89,35.42a65.29,65.29,0,0,1-8.36-7.75c-4.47-5.16-8.53-10.77-12.67-16.19-6.66-8.73-11.56-19.21-19.41-26.93-2.47-2.44-6.29,1.37-3.81,3.81,8,7.91,13.23,18.94,20.13,27.88,3.74,4.84,7.37,9.8,11.3,14.48.82,1,1.68,1.89,2.58,2.78A35.71,35.71,0,0,1,237.76,1591.67Zm-69.29,21.13a119.89,119.89,0,0,1-21.43-.57c-6.35-.74-22.39-1.73-22.31-10.76.07-7.94,11.66-12,17.88-13,8.14-1.43,16.41-.07,24.35,1.81s15.62,4.07,23.41,6.14c4.74,1.26,9.76,2.26,14.49,3.88-15-.24-30.05-.51-45.07-.89-3.47-.08-3.47,5.31,0,5.39q21.22.52,42.46.85A118.2,118.2,0,0,1,168.47,1612.8Zm90.15,10.83a127.56,127.56,0,0,1-13,17.95c-5,5.83-11.12,10.37-17.43,14.73-5.09,3.53-16.81,14.72-20.87,5.23-6.79-15.89,8.88-27.92,20.3-35.36,10.82-7,22.79-14,35.33-17.87a69.53,69.53,0,0,1-10,10.25c-6,4.83-12.15,9.61-18.4,14.15-8.9,6.47-18.88,11.79-22.94,22.68-1.21,3.26,4,4.66,5.2,1.44,4.16-11.17,17.58-17.15,26.49-24,4.76-3.67,9.58-7.29,14.24-11.09a48.38,48.38,0,0,0,3.59-3.26A35.39,35.39,0,0,1,258.62,1623.63Z"/><path class="cls-2" d="M1916.94,367.11a3,3,0,0,0-.54-.72A42.64,42.64,0,0,0,1885.58,354a39.36,39.36,0,0,0-25.34,11.1c0-.19,0-.38,0-.58.17-4.54-2-9.82-6.89-10.66-3.39-.59-4.85,4.61-1.43,5.19,2.42.42,3.72,4.14,2.76,6.32a6.92,6.92,0,0,1-2.67,2.51q-32.28.89-64.56,1.59c6-3.56,12.61-11.86,12.33-18.71-.31-7.62-9.94-10.74-16.25-10.76-7.74,0-14.86,5.48-14.48,13.61.17,3.46,5.56,3.48,5.4,0-.38-7.93,8.74-9.24,14.66-7.19,4,1.39,5.78,3.8,4.1,8.32a26.14,26.14,0,0,1-4.84,7.18c-3.72,4-8.86,5-14,5.92a175.13,175.13,0,0,1-17.83,2.26q-63.61,1.23-127.25,1.81c-3.47,0-3.48,5.42,0,5.39q62.58-.56,125.17-1.76a3,3,0,0,0,.81.06l1.61-.11q21.71-.42,43.41-.91a2.62,2.62,0,0,0,1.15.14c8.12-.67,16.49,1.45,20.34,9.37a18.26,18.26,0,0,1,1.52,4.09c.76,4.07-1.84,5.89-5.37,6.63-6.7,1.41-10.7-5-6.52-10.46,2.11-2.75-2.57-5.44-4.66-2.72-4.29,5.61-3.15,13.86,3.28,17.38,5.59,3.06,14.53,1.07,17.8-4.61,3.48-6-1.39-14.4-5.6-18.77a17.74,17.74,0,0,0-1.71-1.54l25.38-.65h.06c2.69,0,5.51.15,8,1.42,1,.52,2.9,1.59,3.06,2.88.22,1.66-2.35,2.51-3.56,1.77-3-1.83-5.67,2.83-2.72,4.65,4.69,2.89,11.08-.55,11.63-5.51a33.74,33.74,0,0,0,20.27,4.34,63,63,0,0,0,15.87-4.24c5.83-2.33,10.42-6,16.91-6.6C1918.23,371.93,1918.75,368.25,1916.94,367.11Zm-42.45,10c-3.23-.69-7.15-1.51-10.09-3.45,1.09-.44,2.18-.86,3.29-1.22,6.82-.09,13.62,1,19.73,4.06A28,28,0,0,1,1874.49,377.15Zm19.38-2.52a2.7,2.7,0,0,0-1.08-1.27,37.91,37.91,0,0,0-7.94-3.77,57.25,57.25,0,0,1,12.65,1.28c3.38.73,4.82-4.47,1.43-5.2a62,62,0,0,0-32,1.44l-1.1,0a35.19,35.19,0,0,1,21.53-7.74,36.75,36.75,0,0,1,22.55,8.46C1904.37,369.52,1899.42,372.58,1893.87,374.63Z"/><path class="cls-2" d="M1613.51,371.93q-63.65-.57-127.27-1.81c-5.64-.44-11.25-1.1-16.83-2.09s-11-1.85-15-6.09a26.83,26.83,0,0,1-4.44-6.45c-.79-1.7-1.59-4.84-.69-6.62.49-1,2.58-1.76,3.51-2.15,6-2.48,15.94-1.4,15.54,6.91-.16,3.47,5.23,3.46,5.39,0,.37-7.75-6.14-13.22-13.56-13.56-6.49-.3-16.84,2.77-17.16,10.71-.28,6.78,6.36,15.2,12.27,18.71q-32.25-.72-64.5-1.59a6.92,6.92,0,0,1-2.67-2.51c-1-2.18.34-5.9,2.76-6.32,3.41-.58,2-5.78-1.44-5.19-4.92.84-7.06,6.13-6.88,10.66a5.44,5.44,0,0,0,0,.58,39.37,39.37,0,0,0-25.35-11.1,42.61,42.61,0,0,0-30.81,12.37,2.71,2.71,0,0,0-.54.72,2.86,2.86,0,0,0,1.52,5.06c6.19.55,10.57,3.94,16.09,6.28a62.64,62.64,0,0,0,16.69,4.56,33.74,33.74,0,0,0,20.27-4.34c.54,5,6.94,8.4,11.62,5.51,3-1.81.25-6.48-2.72-4.65-1.25.77-3.77-.08-3.56-1.77.17-1.28,2.11-2.38,3.07-2.88,2.44-1.27,5.26-1.38,7.94-1.42h.07l25.25.65c-.35.28-.7.57-1,.88-4.54,4.21-9.67,13.3-6.15,19.43,3.15,5.48,11.66,7.55,17.19,4.89,6.84-3.3,8.38-11.79,3.88-17.66-2.08-2.71-6.76,0-4.65,2.72,4.22,5.52.06,11.83-6.52,10.46-6.1-1.27-6.17-6-3.85-10.72,3.85-7.92,12.21-10,20.33-9.37a2.6,2.6,0,0,0,1.15-.14q21.7.5,43.41.91l1.62.11a3,3,0,0,0,.81-.06q62.58,1.2,125.17,1.76C1617,377.35,1617,372,1613.51,371.93Zm-280.62-4.07a36.78,36.78,0,0,1,22.56-8.46,35.13,35.13,0,0,1,21.53,7.74l-1.1,0a62,62,0,0,0-32-1.44c-3.39.73-2,5.93,1.43,5.2a57.19,57.19,0,0,1,12.65-1.28,37.91,37.91,0,0,0-7.94,3.77,2.7,2.7,0,0,0-1.08,1.27C1343.43,372.58,1338.48,369.52,1332.89,367.86Zm22.53,8.68c6.12-3.1,12.92-4.15,19.74-4.07,1.1.37,2.2.79,3.28,1.23-2.93,1.94-6.85,2.76-10.09,3.45A28,28,0,0,1,1355.42,376.54Z"/><path class="cls-2" d="M983,611.53c-4.93-2.15-10.28-2.48-15.65-2.15,4-3.6,6.21-8.37,3.42-14.3-3.94-8.34-13-8.84-20.38-5.72a35.68,35.68,0,0,0-2.3-18.64c-2.37-5.69-7.6-12.86-14.73-10.64s-10.23,12.17-11.15,18.68a37.58,37.58,0,0,0,1.38,16.56c-6.14-2.52-13.28-3.12-18.11,1.72-4.21,4.22-3,8.57,0,12.06-12.89-1.05-29-.14-26.43,15.59,2,12.32,17.42,17.92,29.09,15.39-1.37,5.61-.39,11.78,3.6,16.23,4.67,5.2,9.7,4,13.73.44,1.53,9,6.13,19.61,16.31,17.51,9.22-1.89,11.05-13.08,9.83-22.3,4.86,2.42,10.61,2.47,14.68-2.36,4.4-5.2,2.22-10.3-1.33-14.83a65.13,65.13,0,0,0,14.49,2.34c6.59.3,14.35.18,15.49-7.86a2.8,2.8,0,0,0,.1-.73C995.05,620.8,989.93,614.55,983,611.53Zm-8.82,19.71a62.41,62.41,0,0,1-17-4.9,2.71,2.71,0,0,0-3.27,4.24c2.92,3.35,10.94,8.61,9.16,14-2.53,7.61-11.21,2-14.11-1.65-2.05-2.6-5.36.72-4.24,3.27,2.3,5.18,4,22.85-5,22.94-8.14.08-9.42-13.62-9.46-19.06a2.71,2.71,0,0,0-5-1.36c-1.1,1.79-3,4.83-5.11,5.59-3.24,1.14-5.25-2.36-6.2-4.63a13.78,13.78,0,0,1,1.43-12.92c1.45-2.3-1.42-5.05-3.69-3.69-8.34,5-26.6,1.52-27.39-10.13-.9-13.36,23.61-8.21,31.3-7.28,2.59.32,3.77-4,1.36-5-3.89-1.65-13.47-7.1-5.65-10.93,5.07-2.47,12,.67,16,3.8,2.29,1.81,5.81-.4,4.23-3.26-4.84-8.81-7.15-24.14.49-32.38,6.41-6.91,11.19,3.66,12.55,9.14a32.71,32.71,0,0,1-.62,17c-.59,2.07,2,4.54,4,3,4.75-3.66,14-7.31,17.65-.12,4.09,8.14-6.92,12.43-12.82,14.25-2.76.84-2.42,5.7.72,5.29,11-1.43,35.93-5.84,36.22,11.76C988.35,633.69,978.4,631.81,974.19,631.24Z"/><path class="cls-2" d="M944.57,624.85c1.24-5.1-5.62-12.41-10.41-8.61-2.3,1.83.1,4.82,2.52,4.39a4.71,4.71,0,0,1,2.46,1.75c1.38,3.1-3.16,3.44-4.53,2.94-2.68-1-3.45-4-3.76-6.48-.77-6.25,6.47-7.31,10.62-4.39,2.85,2,5.54-2.67,2.73-4.66-5.24-3.68-12.68-3.16-16.91,1.88-3.88,4.64-1.83,13.58,2.7,17.16S943,631.24,944.57,624.85Z"/><path class="cls-2" d="M918.55,622.54c-6,.08-12.79,1-18.51-1.36-3.21-1.32-4.61,3.9-1.43,5.2,6.2,2.54,13.39,1.63,19.94,1.55C922,627.88,922,622.49,918.55,622.54Z"/><path class="cls-2" d="M940.39,638.34c-.4-3.41-5.8-3.45-5.39,0a98.78,98.78,0,0,0,3.75,17.84c1,3.3,6.23,1.89,5.2-1.43A91.3,91.3,0,0,1,940.39,638.34Z"/><path class="cls-2" d="M967.36,618.44a72.69,72.69,0,0,0-15.94.73c-3.41.52-2,5.72,1.44,5.2a66.34,66.34,0,0,1,14.5-.54C970.82,624.07,970.8,618.68,967.36,618.44Z"/><path class="cls-2" d="M939.22,601.58c-1.2-4-2.38-7.9-1.67-12.12a36.32,36.32,0,0,0,.61-9.31c-.29-3.44-5.68-3.47-5.39,0,.33,4-.8,7.58-.95,11.5s1.12,7.75,2.2,11.36C935,606.33,940.21,604.92,939.22,601.58Z"/><path class="cls-2" d="M925.56,630.9a21.67,21.67,0,0,0-7.06,12c-.7,3.38,4.49,4.83,5.2,1.43a17,17,0,0,1,5.68-9.63C932,632.44,928.18,628.64,925.56,630.9Z"/><path class="cls-2" d="M952,633.67a6.75,6.75,0,0,1-3.94-2.93c-1.83-2.93-6.5-.23-4.65,2.72a12.32,12.32,0,0,0,7.16,5.41C953.93,639.81,955.36,634.61,952,633.67Z"/><path class="cls-2" d="M947.86,607.44A59.65,59.65,0,0,1,958,601.59c3.15-1.43.42-6.08-2.72-4.65a59,59,0,0,0-10.13,5.85C942.34,604.79,945,609.47,947.86,607.44Z"/><path class="cls-2" d="M925.78,609.31a2.74,2.74,0,0,0-1-3.69l-4.57-2.88a2.69,2.69,0,1,0-2.72,4.65l4.57,2.88A2.73,2.73,0,0,0,925.78,609.31Z"/><path class="cls-2" d="M1162.27,621a8.8,8.8,0,0,0-5-4.62,6.3,6.3,0,0,0,1.46-3.66c.17-3.66-3.55-6.37-6.73-7.33-8.52-2.55-22.86,4.3-27.26,11.7a2.79,2.79,0,0,0-.38,1.21,844.86,844.86,0,0,1-120.33-.24c-3.46-.25-3.44,5.14,0,5.39a845.43,845.43,0,0,0,120.79.21l.05,0c4.88,3.2,11.53,4.41,17.17,5.52,5.1,1,12,2.45,16.9.16C1162.4,627.81,1163.84,624.53,1162.27,621Zm-6,3.67c-.11.4-3.56.31-4,.31a46.13,46.13,0,0,1-9.65-1.17c-4.24-.89-9.28-1.77-13.28-3.81,0-.06.1-.12.14-.19,2.41-4.06,8.4-6.72,12.74-8.1a23,23,0,0,1,6.22-1.38c3.94,0,6.56,2.79,1.77,4.69a2.75,2.75,0,0,0-1.54,1.47c-1,1.59-.33,4.28,2.14,4.24C1152.28,620.73,1156.76,622.93,1156.25,624.7Z"/><path class="cls-2" d="M1093.83,630.06c-6.16-.93-12,0-18.06-.3a2.71,2.71,0,0,0-2.32,4.06c1.86,2.86,4.08,5.44,5.51,8.57a30.83,30.83,0,0,0,4,6.5c2.73,3.45,6.67,8.27,11.64,8.17,3.88-.07,5.25-3.75,5.15-7.12a12.81,12.81,0,0,0-1.26-5.07,6.78,6.78,0,0,0,1.8-.59c2.8-1.4,5.62-5.41,4.52-8.6C1103.41,631.74,1097.29,630.58,1093.83,630.06Zm-1.2,7.72a2.52,2.52,0,0,0-3.8,1.43,2.57,2.57,0,0,0,.83,3.73,9.91,9.91,0,0,1,3.84,4.24c.25.52,1.58,3.93.51,4.34-1.93.74-5.48-4.19-6.64-5.66-1.93-2.43-2.95-4.89-4.4-7.57a29.79,29.79,0,0,0-2-3.19,64.47,64.47,0,0,1,9.73,0c1.33.14,8.15.62,8.48,2.44C1099.84,641.44,1093.55,638.36,1092.63,637.78Z"/><path class="cls-2" d="M1039.16,616.56c6.36-1,12.82-1.22,19-3,3.75-1.05,8.72-3,10.35-6.9,1.43-3.45-1.13-6.11-4.16-7.41a13.13,13.13,0,0,0-5.39-1,6,6,0,0,0,.19-1.6c0-3.18-2.58-7.71-6.09-7.94-3.89-.26-7.14,4.21-9,7-3.66,5.36-5.14,11.21-7.94,16.88A2.73,2.73,0,0,0,1039.16,616.56Zm6.68-13.22a41.27,41.27,0,0,1,3.42-5.71,4.78,4.78,0,0,1,3.8-2.81c.57,2.77-.33,4.68-2.7,5.75a2.83,2.83,0,0,0-.27,4.44,2.24,2.24,0,0,0,3.35.64,9.06,9.06,0,0,1,5.58-1.75c2,0,3.87-.41,3.23,1.53-.77,2.34-5.42,3-7.57,3.53-3,.71-5.74.55-8.74.86-1,.11-2,.3-3.06.5A60.57,60.57,0,0,1,1045.84,603.34Z"/><path class="cls-2" d="M869.21,618.09a844.86,844.86,0,0,1-120.33.24,2.66,2.66,0,0,0-.38-1.21c-4.36-7.35-18.78-14.32-27.26-11.7-6.6,2.05-7.6,7-4.86,10.84A8.86,8.86,0,0,0,711,621c-1.55,3.49-.15,6.79,3.29,8.37,4.94,2.26,11.79.84,16.89-.16,5.64-1.11,12.3-2.33,17.18-5.52l0,0a845.42,845.42,0,0,0,120.79-.21C872.65,623.23,872.67,617.83,869.21,618.09ZM730.7,623.84A50.08,50.08,0,0,1,722,625c-1,0-3,.37-3.91-.14q-2.73.09.71-2.13c.73-1.82,2-2.47,3.71-2,2.46,0,3.17-2.65,2.14-4.24a2.75,2.75,0,0,0-1.54-1.47c-4.79-1.91-2.16-4.65,1.77-4.69a21.09,21.09,0,0,1,6.22,1.38c4.43,1.45,10.28,4,12.74,8.1l.14.19C740,622.06,734.93,623,730.7,623.84Z"/><path class="cls-2" d="M797.52,629.76c-5.94.25-11.68-.6-17.7.25-3.55.51-9.89,1.61-11.31,5.67-1.08,3.11,1.48,6.62,4,8.22a6.7,6.7,0,0,0,2.36.92,12.51,12.51,0,0,0-1.23,4.54c-.26,3.49,1,7.62,5.09,7.7,4.59.09,8.45-4.2,11-7.39,3.9-4.84,6.71-10.63,10.11-15.85A2.72,2.72,0,0,0,797.52,629.76Zm-11.59,16.1c-1.38,1.74-3.27,4.74-5.59,5.14-1.11,1-1.57.61-1.38-1.06l.33-1.75a9.67,9.67,0,0,1,4.34-5.25,2.57,2.57,0,0,0,.83-3.73,2.52,2.52,0,0,0-3.8-1.43c-1.07.68-3.47,2.21-4.71,1.85-.21,0-2-1.44-1.94-1.71.06-2.21,7.52-2.73,8.64-2.84a65.28,65.28,0,0,1,9.69,0,27.51,27.51,0,0,0-1.66,2.53C789,640.52,788.05,643.17,785.93,645.86Z"/><path class="cls-2" d="M815.09,613.6c6.22,1.74,12.68,1.91,19,3a2.74,2.74,0,0,0,3-4c-2.66-5.36-4.07-10.94-7.41-16.08-2-3-5.37-8-9.57-7.79-3.43.2-5.85,4.52-6.05,7.58a6.67,6.67,0,0,0,.17,2,12.94,12.94,0,0,0-5.42,1c-3,1.31-5.59,4-4.16,7.41C806.36,610.64,811.35,612.56,815.09,613.6Zm4.76-8a2.25,2.25,0,0,0,3.36-.64,2.83,2.83,0,0,0-.27-4.44c-2.38-1.07-3.28-3-2.7-5.75a4.78,4.78,0,0,1,3.79,2.81,41.27,41.27,0,0,1,3.42,5.71,60.79,60.79,0,0,1,3,7c-.9-.17-1.8-.34-2.71-.46-3.14-.4-5.94-.15-9.1-.91-2.19-.52-5.41-1-7-2.58C807.76,602.45,817.54,604,819.85,605.65Z"/><path class="cls-2" d="M1126.14,364c-2.06,4.45-3.58,7-9.18,6.33a28.49,28.49,0,0,1-9.13-3.13,34.41,34.41,0,0,1-11.11-9.95c-8.36-14.22-23.78-23.07-41.07-18.64-15.74,4-26.28,15.65-36.78,27.35,2.26-8.7,1.58-17.75-4.47-25.59-10.78-14-31.49-10.84-39.45,4.16-2.54,4.79,4.72,9.05,7.27,4.25,6.8-12.8,24.56-11.33,28.56,2.87,3.25,11.57-3.47,23.08-10.84,31.53a35.45,35.45,0,0,1-28.79,12.42c-14.69-.51-25.67-17.29-11.55-27.93,4.27-3.22.08-10.54-4.25-7.27-13.91,10.48-14.42,31.64,1.93,40.33,13.15,7,29.82,3.29,41.63-5.3a4.46,4.46,0,0,0,1.15-.52c13.53-8.79,22.73-21.65,34-32.93,11.86-11.9,30.4-22.73,46.23-11.16a33.07,33.07,0,0,1,6.83,6.93,4.1,4.1,0,0,0,.6,1.33c.64.94,1.36,1.89,2.14,2.85,6.1,10.63,8,24.53-1.44,32.44-7.25,6.11-18.7,8.58-27.22,3.69-8.36-4.8-12.72-15.06-7-23.53,3.06-4.5-4.24-8.72-7.27-4.26-12.51,18.39,6.44,39.75,26,38.77,9.53-.47,19.45-5.27,25.36-12.85,5-6.45,5.69-14.85,4.3-22.76,11,7.11,24,9.29,30.78-5.18C1135.69,363.37,1128.43,359.09,1126.14,364Z"/><path class="cls-2" d="M918,360.4c-4.33-3.26-8.53,4.05-4.25,7.27,14,10.55,3.22,27.46-11.56,27.93a35.62,35.62,0,0,1-28.78-12.42c-7.39-8.37-14.14-20-10.84-31.53,4.06-14.14,21.72-15.74,28.56-2.87,2.54,4.79,9.81.54,7.27-4.25-7.94-14.95-28.72-18.18-39.46-4.16-6,7.91-6.71,17-4.43,25.68-9.9-11-19.82-21.84-34.32-26.69-17.92-6-34.55,2.8-43.44,17.73a34.33,34.33,0,0,1-11.23,10.11,31.25,31.25,0,0,1-9.13,3.13c-5.59.75-7.14-1.92-9.19-6.33-2.28-4.91-9.54-.63-7.27,4.25,6.72,14.46,19.77,12.29,30.77,5.18-1.41,7.92-.71,16.31,4.31,22.76,5.91,7.59,15.81,12.37,25.36,12.85,19.59,1,38.53-20.39,26-38.77-3-4.45-10.33-.24-7.27,4.26,5.75,8.45,1.46,18.77-7,23.53-8.11,4.58-18.28,2.64-25.59-2.55-11-7.78-9.53-22.38-3.08-33.57.78-1,1.51-1.92,2.15-2.86a4.34,4.34,0,0,0,.59-1.29,33.18,33.18,0,0,1,7.8-7.61c16.2-10.95,34.57.8,46.22,12.75,10.85,11.15,20.08,23.56,33.31,32.12a4.85,4.85,0,0,0,1,.46c11.79,8.55,28.43,12.15,41.55,5.22C932.4,392.08,931.83,370.85,918,360.4Z"/><path class="cls-2" d="M1219,873.89a2.22,2.22,0,0,0-1.93-2.61c-7.78-1.38-15.41-4.07-23-6.27-9.8-2.85-19.63-4.75-29.65-6.67-6.91-1.32-13.8-2.8-20.75-3.93-4.82-.79-11.51-2.13-15.94.44s-7.81,6.6-11.38,10.08c-2,2-4.27,4.29-7,5.08a52.73,52.73,0,0,1-7.92,1.18,3,3,0,0,0-.68.17q-11.52,0-23,0-16.29,0-32.57,0l-12.79.06c-3.75,0-7.95-.4-11.6.59-7,1.91-8.77,8.21-13.67,12.63-6.4,5.78-18.23,10.89-26.62,7.06-5.42-2.48-7-6.94-6.31-11.57,6.67-.49,13.47-2,18.21-6.48,5.3-5,7-14.37-2.25-15.72-8.51-1.25-16.74,8.22-19.78,15.17a20.65,20.65,0,0,0-.79,2.16c-6.45.36-13.22-.34-18-3.38a13.94,13.94,0,0,1-2.27-1.82l.56-1.15c1.77-3.66,8.58-19.55-1.6-17.48-7.71,1.56-9.08,12.62-6,18.33.18.32.37.61.56.91-4,7.51-8.74,17.17-17.46,19.43a4.8,4.8,0,0,1-3.87-.26c-2.52-1.19-2.15-3.24-1.7-5.76a39.38,39.38,0,0,1,1.7-6,59.45,59.45,0,0,1,3.23-7.42,6.68,6.68,0,0,0,2.64-5.44,2.71,2.71,0,0,0-5-1.36c-.66,1.06-1.36,2.24-2.06,3.49a28.84,28.84,0,0,1-6.2,2.63,45.15,45.15,0,0,1-12.37,2l-.93,0a16.37,16.37,0,0,0-1.52-4.1c-2.52-4.7-9.61-7.79-13.78-3.14a7.92,7.92,0,0,0-.64.82,2.61,2.61,0,0,0-4-.3,32.21,32.21,0,0,0-4.44,6.22,80.7,80.7,0,0,1-17.36,15.07c-3.8,2.53-8,4.82-12.5,5.67-7.9,1.47-13.67-3.83-13.81-11.72a31.21,31.21,0,0,1,2.69-12.25l.43-.2c12.15-5.58,23.47-13.43,31.71-24.08,3.23-4.18,7.75-9.92,8-15.46a7.25,7.25,0,0,0-7.85-7.76c-5.8.33-10.22,6.33-13.73,10.26a144.12,144.12,0,0,0-12.65,16.38,130.46,130.46,0,0,0-10,16.86,147.48,147.48,0,0,1-22.68,7.69c-11.48,2.94-23.08,2.49-34.84,2.63-7.41.09-14.82.18-22.23.17-7.71,0-15.42-.15-23.14-.34a2.25,2.25,0,0,0-.74-.38,40.37,40.37,0,0,0-3.7-3.1c-3-2.39-4.8-5.62-7.08-8.65-3.34-4.44-5.69-5.84-11.09-5.16-16.33,2-32.4-.16-48.7-1.11a2.71,2.71,0,0,0-2.6,3.41c.94,3.32,2.83,5.33,5.22,7.73a80.18,80.18,0,0,1,9.06,10.75,2.35,2.35,0,0,0-1.23.83c-4.9,6-8.55,12.8-12.88,19.2-1.47,2.16.8,4.22,2.84,3.9a2.26,2.26,0,0,0,2.4,1.5c15.06-.9,30.2.09,45.24-1.28,2.25-.2,5.36,0,7.46-1s2.7-3.23,3.75-5.16a57.44,57.44,0,0,1,12.78-15.81,2.81,2.81,0,0,0,.29-.31c9.55.23,19.09.38,28.65.32,12.38-.07,25,.43,37.34-.44,11.24-.8,22.64-4.19,33.23-8.52a27.53,27.53,0,0,0-.88,13.85c3,13.79,17.21,14.82,28,9.63a73.11,73.11,0,0,0,15.74-10.46c-1.1,6.5.58,12.24,8.44,13.1,10.88,1.2,20.16-9.08,21.09-19.59A53.85,53.85,0,0,0,916,875.05l.65-.21c-2,4.81-3.25,9.92-2.39,14.3,1.69,8.65,11.67,7.32,17.57,4.11,6.58-3.58,11.29-11.07,15-18.16,5.19,4.12,12.46,5.31,19.1,5.29.9,0,1.83,0,2.77,0-.28,5.66,1.82,11.33,6.74,14.72,8.35,5.74,19.28,3,27.64-1.24a32.37,32.37,0,0,0,10.62-8.27c3.82-4.69,5.29-8.38,12.13-8.69,26-1.19,52.34-.35,78.45-.18,3,.22,6.23.3,8.77,1.71s4.46,3.77,6.19,5.91c3.13,3.89,5.09,7,10.27,7.54,12.11,1.3,24.21-2,36-4.29,17.27-3.31,34.33-8.13,51.64-11.09A2.2,2.2,0,0,0,1219,873.89Zm-516.13,14c-1.18,2.1-1.49,4.65-2.73,6.65A2.38,2.38,0,0,0,700,897c-2.71.16-5.42.26-8.14.32a27.21,27.21,0,0,0,1.66-2.73c.71-1.44,1-3,1.6-4.46,1.3-3,3.81-5.39,5.46-8.21,0-.06,0-.12.08-.17q3-.27,5.9-.64C706.3,883.49,704,885.85,702.87,887.85Zm-39.27-24.3c-.6-.6-1.18-1.21-1.71-1.85l2.65.2A3.13,3.13,0,0,0,663.6,863.55Zm54.34,9.09h0a14.32,14.32,0,0,0,1.68,1.51l-1.58,0A3.22,3.22,0,0,0,717.94,872.64Zm-47.8-3a2.6,2.6,0,0,0-.64.1c-.61-.75-1.23-1.5-1.86-2.22-.23-.26-.48-.52-.73-.78A148.44,148.44,0,0,0,689,869.08c6.6.25,14.45-.74,21.16.89C697,868.73,683.23,869.18,670.14,869.65Zm26.93,5a2.88,2.88,0,0,0-.41,2,69.92,69.92,0,0,1-14.27-1.56l-1.65-.34C686.16,874.57,691.62,874.52,697.07,874.64Zm-10.22,6.77s0-.09.08-.14a71.67,71.67,0,0,0,7.16.69,35.35,35.35,0,0,0-3.55,5.31c-.62,1.26-.89,2.59-1.38,3.89a36.58,36.58,0,0,1-2.71,4.75,2.68,2.68,0,0,0-.34,1.53l-9.63,0Q681.33,889.23,686.85,881.41Zm11.5-18.18c2.88-.19,5.74-.5,8.6-.86s4.08.88,5.45,2.73c-5.54-1.44-11.33-1.15-17.15-1.25-5.42-.09-10.81-.31-16.17-.82A151.07,151.07,0,0,0,698.35,863.23Zm-26.91,19.3a2.74,2.74,0,0,0,.49-2.7,1.4,1.4,0,0,0,.4-.11c2.56-1,5.81-.45,8.95.3q-5.37,7.69-10.09,15.81a2.51,2.51,0,0,0-.34,1.72c-3.22.05-6.43.15-9.64.32C664.52,892.68,667.54,887.3,671.44,882.53Zm43.06,6.13c-1.08,1.62-2.76,6.63-4.3,7.68-.74.5-3.08.6-5.25.61,1.46-2.52,2-5.44,3.55-8s3.33-5,3.53-8.09a2.4,2.4,0,0,0,0-.47c2.57-.34,5.13-.66,7.72-.87l2.2.06A62.32,62.32,0,0,0,714.5,888.66Zm133-40.81a134,134,0,0,1,10.88-13.7,70.37,70.37,0,0,1,5.56-5.77l2-1.56,4,2.41c.35,1-1.79,4-2.41,5.09-6.58,11.42-16.72,19.82-28.23,26C842,855.82,845,851.54,847.54,847.85Zm46,21.14c1,.27,1.57,1.36,1.86,2.77l-.53,0-2.58-.4Q887.74,870.56,893.49,869Zm-5.42,21c-3.57,2.16-10.42,3.71-11.27-1.94-.57-3.8.69-8,2.69-11.81a59,59,0,0,0,4.5-6,8.7,8.7,0,0,0,5.5,5.85,26.86,26.86,0,0,0,6,1.33,20.61,20.61,0,0,1-.42,2.68A16,16,0,0,1,888.07,890Zm59.4-31.46c2-2.66,0,2.08-.41,3.19-.31.85-.66,1.68-1,2.5A7,7,0,0,1,947.47,858.57Zm33.62,8.85c1.51-1.41,3.5-3.34,5.53-3.89a4.06,4.06,0,0,1,3.47.19c1.74.94,1.63,1.34.66,3.32-2,4.08-6.89,5.92-11,6.82-1.21.26-2.5.51-3.84.72A24.22,24.22,0,0,1,981.09,867.42ZM1176,879.88a38.13,38.13,0,0,1-4.91-3.09q9.33,0,18.67-.06C1185.16,877.8,1180.58,878.86,1176,879.88Zm-15-8.42q-16.8,0-33.6,0a2.49,2.49,0,0,0-.77,0h-1.49l.07,0c3.56-2.87,7.76-3.93,12.11-4.43a2.72,2.72,0,0,0,2.55,3.4c5.58.66,11.36.35,17,.27a2.1,2.1,0,0,0,1,.49c4.73.86,11.49-2.18,16-.69a3.08,3.08,0,0,0,1,1l-11.87,0A2.48,2.48,0,0,0,1161,871.46Zm35.37-.15q-9.25.08-18.52.11a3,3,0,0,0,.37-.28c1.64-1.51,1.16-3.36-.17-4.59,4.9,1.07,9.76,2.24,14.62,3.65C1193.88,870.56,1195.11,870.93,1196.34,871.31Zm-72.19-6.71c2.66-2.47,5.52-5.14,9.24-5.64,3.48-.47,7.36.39,10.76,1,7,1.21,13.9,2.65,20.85,4l5,1c-3.06.37-6.18,1.28-9.12,1.17a2.54,2.54,0,0,0-2-.86c-4.59,0-9.3.26-13.94.11a2.75,2.75,0,0,0-2.28-4.16c-7.82.4-15,1.37-21.3,6.41-1.51,1.22-1,2.94.26,3.85h-4C1119.94,869.26,1122,866.63,1124.15,864.6Zm3.13,21.1c-2.09-1.29-3.46-4.28-5.07-6.17a32.21,32.21,0,0,0-2.7-2.78h6.3c3.52,3.35,7.08,6.74,10.33,10.36C1132.78,887.3,1129.46,887.05,1127.28,885.7Zm15.22.7a2.58,2.58,0,0,0-.37-.58,113.72,113.72,0,0,0-8.52-9.05h9.56c3.72,2.07,6.83,5.07,10.17,7.69-2.66.52-5.33,1-8,1.46Zm22.5-4.22-4.19.82a51.77,51.77,0,0,1-8.43-6.2h9.24c2.37,1.39,4.56,3.08,6.8,4.68C1167.28,881.72,1166.14,882,1165,882.18Z"/><path class="cls-2" d="M1589.72,808.18c-5.9-.3-13.22,2.44-15,9.74-1.87,7.55,2.9,15.93,8.88,18.8,5.29,2.55,12.69,0,13.69-7.33.92-6.87-5.2-11.57-10.38-8.78-2.7,1.45-.35,6.1,2.35,4.65l1.77,1.35q3.87,1.49-.22,4.92a5,5,0,0,1-3.54.76c-2.56-.21-5-2.57-6.48-4.95-3.28-5.43-1.68-11.19,3.73-13.11,7.81-2.77,15.89,2.35,17.24,11.83,3.06,21.55-20.26,27.45-33.77,27.67-8.4.14-16.81.16-25.23.11a1.91,1.91,0,0,0-.73-.3l-.62-.08h0l-.29,0a39.09,39.09,0,0,0-4.65-.36c-26.43-2-56.51-4.41-74.53-29.82-1.9-2.68-5.18,1.15-3.29,3.81,10.39,14.65,24.62,22,39.92,26.07-12.55-.28-25.1-.56-37.64-.73l-53.88-.71c-17-.22-34.22-1.3-51.2.18-13.09,1.14-28.6,3.71-38.71,14.41-9.63,10.19-7.45,24.26.41,34.87,4.73,6.4,11.1,12.94,18.46,14.54,5.75,1.24,12.38-.74,15.52-6.88,2.73-5.32,2.4-13.08-2.48-16.57-4.34-3.1-9.87-1.86-12.69,3-1.67,2.89,2.36,5.59,4,2.72,3.09-5.37,8.88-.13,8.09,5.06-1,6.3-6.72,8.33-11.52,7.34-7.86-1.63-15.81-10.76-19.56-18.65-10.27-21.59,15.82-30.81,29.12-33.25,18-3.31,36.79-1.71,55-1.47l57.6.76,56,.73a31.23,31.23,0,0,0-10.8,10.16c-8.3,13.09-.92,27.78,10.71,33.62,5.79,2.91,12.58,3.24,18.24-.29,5.06-3.16,10.31-9.11,9.36-16.3-.87-6.62-5.72-13.37-11.61-14.28a11.86,11.86,0,0,0-12.5,8.1c-1.88,5.88,3.76,13.25,8.76,13.92a4.68,4.68,0,0,0,5.14-3.72c.66-3.12-1.52-5.31-3.58-6.69-2.42-1.62-4.62,2.33-2.79,4.27-1.24-1.22-3.27-4.39-2.94-6.51.39-2.48,4.58-4.08,6.35-4.1,3.1,0,5.72,2.69,7.2,5.66,1.81,3.63,1.74,6.78-.55,10.16-6.77,10-18.69,7.41-25.87-.24-7.86-8.36-5.3-19.53,3-25.85a39.68,39.68,0,0,1,16.87-7.56c14,.43,28.15,1,42.09.13,13.06-.78,28.7-6.24,33.35-22.23C1609.43,823.31,1602.31,808.82,1589.72,808.18Zm-63.25,79.49a2.85,2.85,0,0,1-.36-.3A2.73,2.73,0,0,0,1526.47,887.67Z"/><path class="cls-2" d="M1930.36,873.71c-5.71-13.67-21.33-18.29-33.06-20.44-16.09-2.94-32.54-2-48.76-1.76l-53.88.71-49.71.65c14.94-4.09,28.81-11.47,39-25.82,1.89-2.66-1.38-6.49-3.29-3.81-18,25.42-48.12,27.8-74.55,29.83a37.39,37.39,0,0,0-4.83.37h-.09l-13.35.17c-15.14.2-42.26,2.46-46.82-20.39-2.14-10.75,4.29-20.47,14-19.63,5.27.46,10.24,4.25,8,11.1a11.9,11.9,0,0,1-5.53,6.86,6.26,6.26,0,0,1-3.23.9,3.36,3.36,0,0,1-3.43-2.72q-2.91-3.25,2.54-4.48c2.7,1.45,5.06-3.19,2.35-4.65-4.16-2.24-9.37.17-10.35,5.71-1.07,6.11,3.87,11.36,8.89,11.53,12.4.42,19.83-21.14,7.36-27.84-11.33-6.09-24.3,2.46-25.49,16.75-1.31,15.9,10.75,27,22.93,30.46,7.89,2.21,16.1,2,24.16,1.85l28.31-.37a39.71,39.71,0,0,1,17.22,7.24c8.62,6.21,11.85,17.59,3.66,26.31-7.09,7.55-18.38,10.14-25.39.84-2.32-3.09-3.08-6.3-1.41-10,1.33-3,3.7-5.79,6.65-6.25,2.11-.32,5.68.7,6.72,3.18,1.12,2.65-1.27,6.64-2.83,7.69,2.59-1.74.26-6.4-2.34-4.66-3.37,2.26-5.74,8.47-.48,10.25,4.42,1.49,10.37-4.94,11.12-9.67.95-5.94-4.27-10.81-8.76-12-6-1.52-11.28,2.71-14.09,8.69-6.89,14.64,9.54,26.1,20.61,23.87,12-2.42,23.86-16.43,18.37-31a28.58,28.58,0,0,0-12.92-14.68l42-.55,57.6-.76c18.14-.23,36.41-1.2,54.54-.27,10,.52,20.09,1.94,29.52,5.92,7.75,3.28,17,10.12,16.22,21.06-.69,10-9.9,20.37-17.23,24.67-4.68,2.75-12,3.51-15.16-2.48-1.25-2.37-1.75-6.27.07-8.5a4.31,4.31,0,0,1,7.08.39c1.65,2.87,5.68.17,4-2.72-5.81-10.06-18.62-2.54-16.71,8.87a13.78,13.78,0,0,0,11,11.67c6.34,1.13,12.19-2,17.08-6.46C1926.57,901.19,1936.12,887.49,1930.36,873.71Z"/><path class="cls-2" d="M1908.07,1132.29c-1.69-7.19-6.45-14-13.25-17.14-7.7-3.55-16.15-1.89-24.1-.26-5.5,1.12-12,2.83-17.47.83a9.07,9.07,0,0,1-3.41-2.15c3.06-3.07,5.37-6.75,5.27-11.14-.14-5.75-6.45-7.45-10.38-3.81-3.74,3.47-3.73,9.45-1.79,14.13-2.19,1.59-4.37,2.91-5.52,3.62a50.56,50.56,0,0,1-13.37,6,43.78,43.78,0,0,1-26.15-.75c-4.15-1.48-7.9-3.86-9.81-7.78,3-4.91,4.3-10.42,2.22-16.08a2.75,2.75,0,0,0-4.51-1.19c-4.59,3.66-5.14,10.74-3.83,16.09,0,.15.09.3.13.44a42.43,42.43,0,0,1-9.13,8.71,46.26,46.26,0,0,1-21.37,8.38c-14.09,1.73-31-2.11-42.23-11.1a35.29,35.29,0,0,1-4.46-4.29,25.7,25.7,0,0,0,1.53-4c1.15-3.89,1.57-9.11-.74-12.7-2-3-5.66-3.93-8.45-1.33-5.36,5-2.85,12.38,1.27,18.36-3.46,5-9.07,8.08-15.32,9.42-17.68,3.76-35.38,4.19-51.23-5.51-2.1-1.28-4.3-2.77-6.49-4.4,8-7.23,16.18-17.07,14.06-28.38-.8-4.29-4.1-9.62-9.1-9.18-3.73.33-6.66,3.33-8.94,6.45-2-2.65-4.53-5.08-7.7-5.83a8.93,8.93,0,0,0-10.08,5.26c-4,8.74,2.6,20.23,8.4,26.4,1.68,1.79,3.43,3.52,5.23,5.18-.71.55-1.42,1.08-2.1,1.59a57.53,57.53,0,0,1-22.27,10.1c-9.3,1.93-18.78.62-28.06-.78-8-1.2-15.63-3.25-20.41-10.08,2.84-4,4.49-8.6,3.63-13.33-.57-3.16-2.71-7-6.42-6.88-4,.12-5.63,4.49-6,7.82a20.8,20.8,0,0,0,2.2,11.86c-9.49,11.19-27.16,16-41.36,15.71a47,47,0,0,1-24-7,44.21,44.21,0,0,1-11.81-10.43c1.57-5.62,1-12.86-3.69-16.59a2.74,2.74,0,0,0-4.5,1.19c-2.08,5.66-.69,11.15,2.26,16-1.91,4-5.68,6.37-9.85,7.86a43.78,43.78,0,0,1-26.15.75,50.48,50.48,0,0,1-13.38-6c-1.14-.71-3.31-2-5.48-3.61a14.33,14.33,0,0,0,.4-10.72c-1.7-4.33-8.08-8.1-11.58-3.19-3.35,4.69.52,10.69,4.32,14.63a9.13,9.13,0,0,1-3.49,2.24c-5.5,2-12,.29-17.46-.83-8-1.63-16.4-3.29-24.1.26-6.8,3.14-11.57,9.95-13.26,17.14-1.54,6.57-.8,13.71,3.4,19.17,3.48,4.52,9,6.88,14.12,3.54,2.89-1.89.19-6.56-2.72-4.66-4.14,2.71-7.62-2.06-9-5.59-2-5-1.24-10.61,1-15.36,5.23-11.33,16.3-11.94,27.21-9.72,8.12,1.64,18.16,4.43,25.79-.34a12.76,12.76,0,0,0,2.67-2.25c12.35,9.64,28,14.43,43.59,11.21,6.71-1.38,13.61-4.18,17.51-9.87a51.57,51.57,0,0,0,7.58,7,52.38,52.38,0,0,0,31.42,10.46,69.71,69.71,0,0,0,32.46-8,47,47,0,0,0,11.21-8.31,27.86,27.86,0,0,0,10.6,8.1c5.85,2.47,12.41,3.07,18.65,3.89,6.73.89,13.47,1.42,20.23.51,11.5-1.56,22.09-6.75,31-14a66.47,66.47,0,0,0,21.43,11.89c12.76,4.08,26.14,2.52,39.11.26,8-1.39,15.22-4.81,20-10.78a36.47,36.47,0,0,0,3.85,3.68c8.49,6.88,20,10.71,30.66,12.18,12.61,1.73,25.66-.28,36.55-7.07a53,53,0,0,0,11.61-9.73,22.53,22.53,0,0,0,10.5,7.82c15.71,6,33.6,2.69,47.23-6.73,1.08-.75,2.22-1.56,3.35-2.42,4.89,5.18,12.82,5.2,19.46,4.25,11.47-1.65,25.6-7.3,34,4.17,3.36,4.61,5.2,11,4,16.67-.89,4-4.8,11.4-9.83,8.11-2.91-1.9-5.61,2.77-2.72,4.66,5.11,3.34,10.64,1,14.12-3.54C1908.87,1146,1909.61,1138.86,1908.07,1132.29Zm-514.53-27.35c1.88-1.5,2.62-1,2.24,1.52-.08.79-.17,1.58-.25,2.37a.54.54,0,0,1,0,.1C1394.29,1107.57,1393.48,1106.2,1393.54,1104.94Zm147.67-2.6c.57-1.52.19-2.28,1.17,0a6.12,6.12,0,0,1,.18,4.38,14.41,14.41,0,0,1-1,2.66C1540.77,1107,1540.43,1104.4,1541.21,1102.34Zm70.07-2.84a25.41,25.41,0,0,1-3.15-11c-.05-3,1.7-6.28,5.14-5.17,2.62.84,4.56,4.18,5.94,6.36a2.73,2.73,0,0,0,4.65,0c2.12-3.37,6.15-9.81,9.78-4.3,2,3,.26,8.64-.94,11.72-2.06,5.26-6.62,10.14-11.35,14.19A45.16,45.16,0,0,1,1611.28,1099.5Zm89.51,8.5a10.46,10.46,0,0,1-.9-4.12c.19-.52.39-1,.58-1.55.28-1.82.57-2.07.87-.77,1.31,1.33.51,5.35.12,7-.06.22-.13.43-.19.65C1701.1,1108.78,1700.93,1108.39,1700.79,1108Zm148.52-3.06c.06,1.26-.75,2.63-2,4a9.22,9.22,0,0,1-.27-2.47C1846.69,1103.94,1847.43,1103.44,1849.31,1104.94Z"/><path class="cls-2" d="M1614.35,1354.4a86.24,86.24,0,0,1-27.94-9.53c-3-1.7-5.75,3-2.72,4.65a89,89,0,0,0,13,5.86l-108.6,0c-28.84,0-57.69-.31-86.53.27h0a6.91,6.91,0,0,0-1.17-.43,2.71,2.71,0,0,0-.72-.17h-.15c-2.81-.31-6.48-1.13-8.35-3.26-2.56-2.91-2.33-7-.68-10.35a2.85,2.85,0,0,0-3.26-4q-11.14.51-22.28.85c-4.88.15-10.1.68-15.18.59a3.37,3.37,0,0,0-.84,0,39.7,39.7,0,0,1-7.12-.82,2.85,2.85,0,0,0-3.28,3.54,3,3,0,0,0-.1.63c-.35,7.12,3.51,12.12,9.21,16.07a21.51,21.51,0,0,0,3.1,1.8c-5.45,4.18-9.22,11.52-9.18,18-.37,1.56.45,3.38,2.5,3.25,15.06-1,30-1.82,45.1-1.06a2.72,2.72,0,0,0,2.7-2.7,36.26,36.26,0,0,1,.69-9.18c.44-2.07,1-4.65,2.57-6.25a3.33,3.33,0,0,1,1-.79,21.71,21.71,0,0,0,2.75-.27c29.72-.65,59.46-.32,89.18-.33l109.1,0a82.79,82.79,0,0,0-14.15,7c-2.92,1.85-.22,6.52,2.72,4.65,8.81-5.59,18.79-8.73,28.65-11.92a2.65,2.65,0,0,0,1.81-3.14A2.21,2.21,0,0,0,1614.35,1354.4Zm-230.86,20.32c-.58-2.55.62-5.89,1.94-8a8,8,0,0,1,2.6-2.42,34.56,34.56,0,0,0-1.62,10.48C1385.44,1374.79,1384.46,1374.74,1383.49,1374.72Zm-21.52-.59c-.77-5.09,2.36-8.17,5.76-11.32,1.32,0,2.64-.13,3.94-.23a18.05,18.05,0,0,0-4.09,12.21c-1.88.06-3.75.13-5.62.21A3.15,3.15,0,0,0,1362,1374.13Zm-2.81-26.42c.85,2.19,2.66,4.16,4.07,6a44,44,0,0,0,3.14,3.8c-1.16,0-2.31,0-3.47,0-2.54-1.61-5.15-3-7-5.4a18.82,18.82,0,0,1-3.94-7.9c2.23,0,4.47-.15,6.69-.25A8.58,8.58,0,0,0,1359.16,1347.71Zm17.49-4.41,7.65-.32a13.59,13.59,0,0,0,2.14,11.58,12.59,12.59,0,0,0,1.35,1.47l-1.53,0C1381.71,1353.29,1375.54,1349.42,1376.65,1343.3Zm-5.44.2a14.12,14.12,0,0,0,2.69,9.19,19.45,19.45,0,0,0,3.35,3.72l-2.25.08a3.4,3.4,0,0,0-.46.07c-3-.85-4.81-3.13-6.66-5.55s-3.75-4.37-3.77-7.28Zm-27.37.34c.88.11,1.76.19,2.65.25a22,22,0,0,0,4.11,9.8C1347,1351.57,1344.22,1348.15,1343.84,1343.84Zm13.36,18.73a3.08,3.08,0,0,0,.58-.26c.82.14,1.64.25,2.47.33a14.91,14.91,0,0,0-2.41,3.68,16.09,16.09,0,0,0-1.11,8.93c-3.19.16-6.38.35-9.57.55C1348.16,1370.36,1352.24,1364.18,1357.2,1362.57Zm15.76,12.11a13,13,0,0,1,6.6-11.85,2.7,2.7,0,0,0,.93-.87l2.24-.14a13.53,13.53,0,0,0-2.88,4.25,16.87,16.87,0,0,0-1.75,8.57C1376.38,1374.64,1374.67,1374.65,1373,1374.68Z"/><path class="cls-2" d="M1892.13,1360.12a22.06,22.06,0,0,0,3.1-1.8c5.69-4,9.55-9,9.21-16.07a3,3,0,0,0-.1-.63,2.85,2.85,0,0,0-3.28-3.54,38.81,38.81,0,0,1-7.12.82,3.45,3.45,0,0,0-.85,0c-5.08.09-10.29-.44-15.17-.59q-11.14-.33-22.28-.85a2.85,2.85,0,0,0-3.26,4c1.65,3.33,1.87,7.44-.68,10.35-1.86,2.12-5.54,3-8.35,3.26h-.16a2.64,2.64,0,0,0-.71.17,6.91,6.91,0,0,0-1.17.43h0c-28.83-.58-57.68-.26-86.52-.27l-108.6,0a89.47,89.47,0,0,0,13-5.86c3-1.69.31-6.35-2.73-4.65a86.08,86.08,0,0,1-27.94,9.53,2.21,2.21,0,0,0-1.84,3,2.65,2.65,0,0,0,1.81,3.14c9.86,3.19,19.84,6.33,28.64,11.92,2.94,1.87,5.65-2.8,2.73-4.65a82.52,82.52,0,0,0-14.16-7l109.11,0c29.72,0,59.46-.32,89.18.33a21.21,21.21,0,0,0,2.73.27,3.45,3.45,0,0,1,1.06.79c1.54,1.58,2.13,4.18,2.57,6.25a36.26,36.26,0,0,1,.69,9.18,2.71,2.71,0,0,0,2.69,2.7c15.08-.76,30,.11,45.11,1.06,2,.13,2.87-1.69,2.5-3.25C1901.34,1371.64,1897.58,1364.3,1892.13,1360.12Zm-6.48,2.45c4.95,1.61,9,7.79,10,13.23-3.2-.2-6.38-.39-9.57-.55a16.09,16.09,0,0,0-1.11-8.93,14.91,14.91,0,0,0-2.41-3.68c.82-.08,1.65-.19,2.47-.33A2.82,2.82,0,0,0,1885.65,1362.57Zm-26.29,12.15c-1,0-1.95.07-2.92.11a34.33,34.33,0,0,0-1.63-10.49,7.79,7.79,0,0,1,2.61,2.43C1858.74,1368.89,1860,1372.15,1859.36,1374.72Zm-2.95-20.16a13.59,13.59,0,0,0,2.14-11.58l7.65.32c1.11,6.12-5.06,10-9.61,12.78l-1.53,0A13.52,13.52,0,0,0,1856.41,1354.56Zm27.15-6.53a8.79,8.79,0,0,0,.63-4.08c2.23.1,4.46.21,6.7.25a18.82,18.82,0,0,1-3.94,7.9c-1.85,2.42-4.46,3.78-7,5.4-1.16,0-2.32,0-3.48,0a42.12,42.12,0,0,0,3.14-3.79C1881,1351.94,1882.66,1350.11,1883.56,1348Zm-12.38,14.55c1.3.1,2.62.18,3.94.23,3.4,3.15,6.53,6.23,5.76,11.32a3.15,3.15,0,0,0,0,.87c-1.87-.08-3.74-.15-5.62-.21A18.15,18.15,0,0,0,1871.18,1362.58Zm21.08-8.7a22,22,0,0,0,4.1-9.79c.89-.06,1.77-.14,2.65-.25C1898.62,1348.12,1895.87,1351.55,1892.26,1353.88Zm-13.52-10.15c0,2.9-2,5-3.78,7.28s-3.66,4.7-6.66,5.55a3,3,0,0,0-.45-.07l-2.26-.08a19.16,19.16,0,0,0,3.36-3.72,14.12,14.12,0,0,0,2.69-9.19Zm-14,30.92a16.88,16.88,0,0,0-1.76-8.58,13.34,13.34,0,0,0-2.87-4.25l2.24.14a2.62,2.62,0,0,0,.93.87,13,13,0,0,1,6.6,11.85C1868.18,1374.65,1866.46,1374.64,1864.75,1374.65Z"/><path class="cls-2" d="M1611.16,1599.71a2.48,2.48,0,0,0-1.21-1.37,125.09,125.09,0,0,0-16.14-7.18c-5.44-2-11.41-4.61-17.15-5.48-7.67-1.17-12.31,6.09-14.5,12.7l-111.24.57c-19.19.1-38.38.08-57.56.33q-3.12,0-6.24.12c-6-4.24-7.09-9.58-5.1-16.57,1-3.35-4.24-4.77-5.2-1.44-2,7.21-1.29,13.28,2.74,18.26l-2.83.14a2.43,2.43,0,0,0-1.3-.6c-1.42-.22-4.28-4.55-5-6.14-1.67-3.65-.29-6.91,1.34-10.31,1.49-3.11-3.15-5.85-4.65-2.72-2.31,4.81-4,9.61-1.82,14.81a26,26,0,0,0,3.25,5.43l-.77,0a2.88,2.88,0,0,0-.71-.73c-5.26-3.8-9.74-11.53-5.47-17.68,2-2.85-2.69-5.55-4.66-2.72-3.19,4.6-2.68,9.53-1,14.63a17.63,17.63,0,0,0,4.26,7c-.85,0-1.7.06-2.54.07a2.76,2.76,0,0,0-.57-.56,3,3,0,0,0-1-.62c-5.21-3.07-11.93-10.88-4.95-15.85,2.8-2,.11-6.67-2.73-4.65-8.37,6-6,15.22,0,21.33a51.23,51.23,0,0,1-5.87-1c-3.38-.75-4.82,4.44-1.43,5.2,1.92.43,3.86.75,5.81,1-4.85,6-6.17,14.21,1.47,19.66,2.83,2,5.53-2.65,2.73-4.65-6.06-4.32-1.76-10.8,2.89-14.44,1.36.06,2.72.08,4.09.08a18,18,0,0,0-2.14,4.37c-1.71,5.12-2.23,10,1,14.63,2,2.83,6.64.14,4.66-2.72-3.85-5.55-.54-12.41,4-16.47l1.67-.09a24.35,24.35,0,0,0-2,3.63c-2.18,5.21-.49,10,1.82,14.81,1.5,3.13,6.14.4,4.65-2.72-1.61-3.37-3-6.66-1.34-10.31.62-1.37,3-5,4.49-5.92l4.36-.31c-3.78,4.91-4.46,10.86-2.46,17.89,1,3.33,6.16,1.91,5.2-1.44-2-7-.91-12.45,5.26-16.69.11-.08.19-.16.29-.24,1.23,0,2.47-.1,3.7-.12,19.16-.3,38.34-.25,57.5-.35l113-.58c2,6.87,6.75,15,14.85,13.8,5.73-.87,11.72-3.49,17.15-5.49a123.68,123.68,0,0,0,16.14-7.17c.1-.06.18-.13.27-.19C1613,1604.78,1613.28,1601,1611.16,1599.71Zm-26.84-6.12c5.09,1.67,10.12,3.47,15,5.59a84.86,84.86,0,0,1-9.7-.08q-10.85-.9-21.71-.8a16.71,16.71,0,0,1,2.54-4.35C1574.49,1589.15,1579.43,1592,1584.32,1593.59Zm0,16.06c-4.17,1.37-9.58,4.31-13.23.46a18,18,0,0,1-3.65-6.42q11.11-.11,22.19.8a79.08,79.08,0,0,0,8.43.12C1593.57,1606.5,1589,1608.13,1584.32,1609.65Z"/><path class="cls-2" d="M1900.3,1599.55a51.23,51.23,0,0,1-5.87,1c6-6.11,8.39-15.36,0-21.33-2.83-2-5.52,2.65-2.72,4.65,7,5,.24,12.79-5,15.85a2.93,2.93,0,0,0-1,.62,2.76,2.76,0,0,0-.57.56c-.85,0-1.7,0-2.55-.07a17.56,17.56,0,0,0,4.27-7c1.71-5.12,2.23-10-1-14.63-2-2.83-6.64-.14-4.66,2.72,4.26,6.13-.24,13.9-5.47,17.68a2.88,2.88,0,0,0-.71.73l-.76,0a25.29,25.29,0,0,0,3.23-5.43c2.19-5.21.5-10-1.81-14.81-1.5-3.13-6.15-.4-4.65,2.72,1.61,3.37,3,6.66,1.34,10.31-.7,1.54-3.63,5.93-5,6.14a2.39,2.39,0,0,0-1.29.6l-2.83-.14c4-5,4.79-11.05,2.73-18.26-1-3.33-6.15-1.91-5.19,1.44,2,7,.92,12.35-5.1,16.58q-3.12-.09-6.24-.13c-19.18-.25-38.37-.23-57.56-.33l-111.24-.57c-2.19-6.61-6.83-13.86-14.5-12.7-5.73.87-11.72,3.49-17.15,5.48a125.09,125.09,0,0,0-16.14,7.18,2.44,2.44,0,0,0-1.21,1.37c-2.12,1.26-1.83,5.07.94,5a3.15,3.15,0,0,0,.27.19,123.68,123.68,0,0,0,16.14,7.17c5.44,2,11.41,4.62,17.15,5.49,8.1,1.23,12.82-6.93,14.85-13.8l113,.58c19.16.1,38.34.05,57.5.35,1.23,0,2.46.06,3.7.11a2.37,2.37,0,0,0,.29.25c6.2,4.26,7.27,9.63,5.26,16.69-1,3.34,4.24,4.77,5.19,1.44,2-7,1.32-13-2.45-17.89l4.37.31c1.51.93,3.84,4.5,4.48,5.92,1.67,3.65.28,6.91-1.34,10.31-1.5,3.12,3.15,5.85,4.65,2.72,2.31-4.81,4-9.61,1.81-14.81a23.51,23.51,0,0,0-2-3.63l1.68.09c4.55,4.06,7.85,10.91,4,16.47-2,2.85,2.69,5.55,4.66,2.72,3.19-4.6,2.68-9.54,1-14.63a17.61,17.61,0,0,0-2.14-4.37c1.37,0,2.74,0,4.1-.08,4.65,3.64,9,10.11,2.88,14.44-2.8,2-.11,6.67,2.72,4.65,7.64-5.45,6.32-13.62,1.48-19.66,1.95-.25,3.89-.57,5.81-1C1905.12,1604,1903.68,1598.79,1900.3,1599.55Zm-241.77-6c4.17-1.36,9.58-4.3,13.23-.46a16.7,16.7,0,0,1,3.17,5.17q-10.87-.09-21.71.8a89.54,89.54,0,0,1-9.69.08C1648.42,1597.06,1653.44,1595.26,1658.53,1593.59Zm13.85,15.71c-4,4.8-9,2-13.85.35-4.65-1.52-9.24-3.15-13.73-5a76.38,76.38,0,0,0,8.42-.12q11.08-.91,22.19-.8A17.63,17.63,0,0,1,1672.38,1609.3Z"/><path class="cls-2" d="M914.16,1613.72c-18,1.63-36,1.06-54,1.25-18.3.19-36.57,1.4-54.83,2.49s-36.5,2.07-54.78,1.77c-9.09-.15-18.18-.61-27.23-1.54a127.86,127.86,0,0,1-13.38-1.76c-2.15-.46-4.78-1.1-6-3.22a4.83,4.83,0,0,1,.78-5.81q3.45-3.2,5.16.58c-.86,3.36,4.34,4.8,5.2,1.43,1.2-4.7-2.65-8.76-7.41-8.82-5-.07-9.22,4.47-9.66,9.24-.54,5.79,3.58,10,8.9,11.46.44.12.89.21,1.33.32a13.77,13.77,0,0,0-1.64.8c-5.45,3.13-7.76,9.51-4.06,15,3.12,4.62,10.47,6.53,15.18,3.29,5.23-3.6,3.17-10-1.69-12.85-3-1.76-5.72,2.9-2.72,4.65,5.81,3.41-3.59,6.66-6.54,1.59-2.75-4.72,2.92-7.66,6.61-8.48,6.84-1.52,14.79-1.19,21.76-1.06h.12c38.15,2.3,76.24-2.36,114.35-3.47,21.5-.63,43.05.49,64.5-1.45C917.59,1618.8,917.62,1613.41,914.16,1613.72Z"/><path class="cls-2" d="M698.91,1618.87a29.9,29.9,0,0,0-17.44-5.24c-6.21.28-10.92,4.35-15.2,8.42a2.57,2.57,0,0,0,.68,4.19c5.14,3.84,12.53,4.34,18.77,4.36,5.39,0,11.87-1.52,14.34-6.87a2.71,2.71,0,0,0,0-2.33A2.67,2.67,0,0,0,698.91,1618.87Zm-26.23,4.61c3-2.62,6.33-4.67,10.7-4.44a23,23,0,0,1,3.85.58c-1.15,0-2.3.05-3.45.1-3.45.15-3.47,5.54,0,5.39,1.92-.08,3.84-.12,5.75-.12A29.72,29.72,0,0,1,672.68,1623.48Z"/><path class="cls-2" d="M1166.65,1621.91a15.46,15.46,0,0,0-1.79-.86c4.37-1,8.4-2.8,9.94-7.55,1.78-5.44-1.53-11.88-7.25-13.19-5.29-1.21-10.78,3.11-9.38,8.6.86,3.36,6.06,1.94,5.2-1.43q1.71-3.76,5.16-.58a3.83,3.83,0,0,1,1.09,4.46c-.71,3.21-3.44,3.93-6.28,4.57a115.06,115.06,0,0,1-13.37,1.76c-9,.93-18.14,1.39-27.24,1.54-18.27.31-36.53-.68-54.77-1.77s-36.53-2.3-54.83-2.49c-18-.19-36,.38-54-1.25-3.45-.31-3.43,5.08,0,5.4,19,1.72,38.08,1,57.13,1.28,19.37.31,38.7,1.71,58,2.82s38.59,2,57.89,1.13c1.94-.08,3.88-.19,5.83-.31h.1c7-.13,14.91-.46,21.76,1.06,3.64.81,7.67,2.82,7,7.06-.44,2.54-2.86,4.07-5.35,4.21-2.3.12-6.5-1.47-1.53-4.38,3-1.75.28-6.41-2.72-4.65-4.86,2.84-6.93,9.25-1.69,12.85,4.71,3.24,12.06,1.33,15.18-3.29C1174.41,1631.42,1172.1,1625,1166.65,1621.91Z"/><path class="cls-2" d="M1207,1622.05c-4.3-4.09-9-8.09-15.19-8.42a29.66,29.66,0,0,0-17.44,5.24,2.66,2.66,0,0,0-1.17,2.52,2.7,2.7,0,0,0,0,2.34c2.47,5.34,9,6.91,14.35,6.87,6.24,0,13.63-.52,18.77-4.36A2.57,2.57,0,0,0,1207,1622.05ZM1184.1,1625c1.81,0,3.61,0,5.41.12,3.47.15,3.46-5.24,0-5.39-1.15,0-2.31-.08-3.47-.1a21.69,21.69,0,0,1,3.88-.58c4.32-.19,7.62,1.82,10.67,4.43-3.35,1.41-7.76,1.54-11,1.69A27.66,27.66,0,0,1,1184.1,1625Z"/><path class="cls-2" d="M944.42,1612.26c-1-1.76-3-2.65-4.89-3.34a14.37,14.37,0,0,0-3.86-1,5.42,5.42,0,0,0-3.75,1.06l-.27.26a3.12,3.12,0,0,0-1.29,1,3.78,3.78,0,0,0-.57,1.41,5.33,5.33,0,0,0,.13,2.57,10.3,10.3,0,0,0,1.38,2.65,17.09,17.09,0,0,0,1.93,2.61,9.26,9.26,0,0,0,8.65,2.52,5.21,5.21,0,0,0,3-1.66,4.71,4.71,0,0,0,.89-3.05,13.33,13.33,0,0,0-.6-3.18A8.49,8.49,0,0,0,944.42,1612.26Z"/><path class="cls-2" d="M934.57,1597.54c.9,1.71,3.55,2.44,4.65.25,3.16-6.27,6.25-14.17,5.26-21.3-.74-5.3-3.3-13.89-10.06-13.72-6.51.15-9.46,8.07-9.62,13.52-.24,8.64,4.43,13.3,8.74,20.28A2.71,2.71,0,0,0,934.57,1597.54Zm-1.73-28.42c6.26-3.49,6.59,11.11,6.08,13.4a60.72,60.72,0,0,1-2.62,8.59,48.31,48.31,0,0,1-4.72-6.89C929.93,1580.94,928.72,1571.41,932.84,1569.12Z"/><path class="cls-2" d="M965.31,1595c3.3-3.61,4.26-9.15.06-12.52-3.94-3.16-8.92-1.47-12.19,1.72a13.14,13.14,0,0,0-3.81,6.11c-.69,2.82.22,5.72.12,8.57a2.6,2.6,0,0,0,.29,1.32,2.85,2.85,0,0,0,2.72,2.65c2.1.08,4.68-1.74,6.4-2.8A29.57,29.57,0,0,0,965.31,1595Zm-10.57,1.5c-.23-2-.57-4.13.24-5.94.94-2.09,4.22-5.48,6.68-4,3.45,2.07-1.28,5.84-3.09,7.21C957.79,1594.31,956.17,1595.56,954.74,1596.45Z"/><path class="cls-2" d="M901.25,1588.24c-2.94,3.94-.44,8.54,3.17,10.92,5.1,3.35,11.45,4.68,17.47,4.63a2.46,2.46,0,0,0,2-1c1.76-.3,3.2-2,1.85-3.8C921.36,1593.27,908.94,1577.93,901.25,1588.24Zm7.59,7.22a17.52,17.52,0,0,1-1.69-1q-2.35-4.53.79-3.86c3.59-.61,7.64,3.87,10.52,7.6a26.57,26.57,0,0,1-5.68-1.12A24.72,24.72,0,0,1,908.84,1595.46Z"/><path class="cls-2" d="M1614.34,614.05c-8.59-1.76-23.37-3.22-27.73-12.19-1.4-2.9-5.49-.76-4.88,2a2.75,2.75,0,0,0,.64,2.1c1.81,2.21,4.17,4.45,5.08,7.17q-20.76-.34-41.52-.57l-2.24,0a2.44,2.44,0,0,0-.5-.38c-7.36-4.38-16.56-12.23-25.92-8.09-4.22,1.87-4.57,5.14-3.11,8.07-9.64,0-19.26.12-28.83.82-2.89.21-5.77.49-8.65.77-8.11-4-15.27-8.7-25.1-6.23-3,.74-6,2.66-5.95,6a5.39,5.39,0,0,0,.48,2.16c-6.8,0-13.6,0-20.39,0l-8.37,0a64.15,64.15,0,0,0-12.95-7.09c-4-1.71-10-4.26-14.46-3.12-3.43.89-4.58,4.47-3.53,7.63a8.34,8.34,0,0,0,1.37,2.53l-19.54,0c-1.59-2.25-4.93-3.94-6.89-4.89-4.54-2.21-10.32-5.69-15.54-5.57-4,.1-7.42,3.36-5.73,7.44a15,15,0,0,0,5.75,6.52c-3.09,1.34-5.76,3.36-6.24,6.52-.61,4,3.61,8.33,7.45,8.69,5.27.49,10.4-3.31,14-6.67,2-1.92,5.32-4.16,7.06-6.65l20.19,0a13,13,0,0,0-1.48,2.38c-2.07,4.43.16,7,4.69,7.88,9.68,1.95,19.91-3,26-10.21l8.21,0c7.07,0,14.16.1,21.24,0-1.43,3.47-.73,7.55,3.45,9.62,10.49,5.16,20.7-5.65,28.46-11.18a2.56,2.56,0,0,0,.6-.58q2.92-.28,5.86-.51c9.28-.67,18.61-.84,28-.82a8.26,8.26,0,0,0,3.31,11c10.21,6.28,21.26-4.74,29.24-10a2.66,2.66,0,0,0,.6-.55q20.4.21,40.8.56a25.94,25.94,0,0,1-2.82,5.3,9.49,9.49,0,0,0-2,3.66c-.89,3.35,4.31,4.78,5.2,1.43a3.18,3.18,0,0,1,.23-.58l.21-.27.46-.74c2.51-2.9,9.11-4.36,12-5.09,4.56-1.17,9.19-2.1,13.81-3a2.72,2.72,0,0,0,0-5.2ZM1392,610.65c1.14-1,8.09,1.88,9.19,2.32,1.91.77,3.91,1.64,5.87,2.6h-7.37a2.61,2.61,0,0,0-.66-.27C1397.86,615,1389.84,612.58,1392,610.65Zm-.43,15c.81-2.36,3.48-3.91,5.88-4.72l12.31,0C1404.58,624.94,1396.92,628.11,1391.56,625.67ZM1453,612.73a35.39,35.39,0,0,1,5.14-.32,21.53,21.53,0,0,1,8.25,1.79c.33.16.64.34,1,.5-4,.38-8,.69-12,.81h-.77l-.12,0C1452.43,615.35,1452,614.44,1453,612.73Zm6.1,13.23a6.78,6.78,0,0,1-3.61.52c-3.39.11-3.79-1.75-1.24-5.56l1.06,0c4.57-.13,9.11-.51,13.64-1l-3.74,2.66C1463.14,624.08,1461.58,625.28,1459.11,626Zm64.6-17.15c2.21-.29,6.06,1.1,7.93,2.22.75.44,1.48.91,2.2,1.4l-12.88-.2c-.4-.39-.32-1,.25-1.85Q1521,607.65,1523.71,608.81Zm1.47,15.76a6.52,6.52,0,0,1-4.42,0q-4.52-6.46.59-6.9c5.24.06,10.47.16,15.69.24l-5.48,3.6C1529.37,622.91,1527.79,624.13,1525.18,624.57Z"/><path class="cls-2" d="M1903.26,625c-.48-3.15-3.15-5.17-6.24-6.52a14.91,14.91,0,0,0,5.74-6.51c1.71-4.1-1.68-7.32-5.72-7.44-5.21-.15-11,3.37-15.54,5.57-2,.95-5.3,2.64-6.89,4.89L1855,615a8.59,8.59,0,0,0,1.26-2.2c1.26-3.19.19-7-3.39-7.95-4.17-1.05-9.91,1.21-13.65,2.77a64.91,64.91,0,0,0-13.76,7.44h-8.37c-6.81,0-13.62.09-20.44,0a5.69,5.69,0,0,0,.47-1.53c.56-3.6-2.74-5.8-5.89-6.59-9.84-2.46-17,2.22-25.1,6.24-2.88-.29-5.76-.56-8.65-.77-9.57-.7-19.2-.86-28.83-.82,1.45-2.94,1.11-6.21-3.11-8.07-9.41-4.16-18.54,3.7-25.92,8.09a2.82,2.82,0,0,0-.5.37l-2.24,0q-20.76.21-41.5.57c.9-2.71,3.22-4.92,5.06-7.16a2.71,2.71,0,0,0,.63-2.11c.62-2.8-3.47-5-4.88-2-4.35,9-19.15,10.43-27.72,12.19a2.72,2.72,0,0,0,0,5.2c4.62.93,9.24,1.86,13.81,3,2.87.74,9.47,2.2,12,5.1l.46.74.21.27a3.57,3.57,0,0,1,.23.57c.89,3.35,6.09,1.93,5.2-1.43a9.55,9.55,0,0,0-2-3.67,24.89,24.89,0,0,1-2.83-5.28q20.42-.35,40.81-.56a3,3,0,0,0,.61.55c8.11,5.32,18.9,16.12,29.24,10a8.14,8.14,0,0,0,3.29-11c9.35,0,18.69.14,28,.82,2,.14,3.91.32,5.86.5a2.81,2.81,0,0,0,.6.59c7.77,5.53,18,16.34,28.46,11.17,4.18-2.06,4.88-6.14,3.45-9.61,7.08,0,14.16,0,21.24,0h8.21c6.12,7.25,16.38,12.21,26,10.2,4.29-.89,6.7-3.17,4.82-7.56a12.3,12.3,0,0,0-1.61-2.69l20.19,0c1.74,2.49,5,4.71,7.06,6.65,3.54,3.34,8.72,7.19,14,6.67C1899.65,633.29,1903.86,629,1903.26,625ZM1711.2,610.49c2.08-1.26,5.55-2.5,7.94-2.22l2.1-.09c1.29,1.67,1.47,2.84.58,3.52q-6.4.07-12.79.19C1709.75,611.41,1710.47,610.94,1711.2,610.49Zm8.6,13.91c-3.67.18-5.73-1.64-8.51-3.46l-5.49-3.6q7.83-.14,15.67-.25C1726,618,1723.68,624.21,1719.8,624.4Zm56.65-10.73a21.32,21.32,0,0,1,8.25-1.8,34,34,0,0,1,5.14.33c1.06,1.71.58,2.62-1.42,2.73l-.12.06-.77,0c-4-.11-8-.42-12-.8C1775.8,614,1776.12,613.82,1776.45,613.67Zm10.9,12.27-1.53,0c-3.52-.2-5.54-2-8.19-3.9l-3.74-2.66c4.53.44,9.07.82,13.64,1l1,0Q1792.42,626.11,1787.35,625.94Zm54.32-13.5c2.16-.86,5.4-2.38,7.79-2.14,1.36-.63,1.76-.36,1.19.81,0,1.07-.56,1.69-1.76,1.86a13.49,13.49,0,0,1-5.07,1.79,2.52,2.52,0,0,0-.65.26l-7.38,0C1837.76,614.07,1839.76,613.2,1841.67,612.44Zm9.61,12.7c-5.35,2.42-13-.76-18.17-4.71l12.29,0C1847.76,621.23,1850.46,622.79,1851.28,625.14Z"/><path class="cls-2" d="M533.36,1079.94c-3-5.88-14.39-4.81-19.49-3-3.75,1.35-7,4.14-10,6.65-4.17,3.44-7.79,8.64-12.44,11.34a2.58,2.58,0,0,0-1,1A233.54,233.54,0,0,1,453,1110.69c1.66-1.63,3.26-3.37,4.85-5.16,3.92-4.44,12.86-12.65,7.48-19.15-6.1-7.38-16.23-1.13-21.59,3.47-4.26,3.66-6.33,7.58-8.62,12.6-2.1,4.62-4.6,9.41-4.36,14.59-8.31,2-16.76,3.51-25.21,3.37a94.75,94.75,0,0,1-19.69-2.73,50.68,50.68,0,0,0,19.68-8c5.33-3.6,16.56-10.27,11.91-18.14s-16.49-4.06-22.51-.17c-9.32,6-15.44,13.61-20.34,23.43-4.71-1.31-9.37-2.67-13.94-3.84-13.39-3.45-26.7-7.35-37.9-15.78-2.77-2.09-5.46,2.59-2.72,4.65,7.6,5.72,16.19,9.44,25.11,12.33-1.4,3.4-2.58,7-1.9,10.67.77,4.13,2.91,8.59,4.9,12.27,3.69,6.8,9.94,13.45,18.25,13a2.69,2.69,0,0,0,2.33-1.33c.46-.92,1.7-1.41,2.33-2.25a8.14,8.14,0,0,0,1.51-3.9c.52-3.92-1.65-7.82-3.24-11.27a44.13,44.13,0,0,0-6.45-10.7,23.12,23.12,0,0,0-2.1-2.1c13.32,3.52,27.2,8.17,41,9.12a2.84,2.84,0,0,0,.35.89c5.87,9.68,13.84,19.9,23.35,26.11,4.52,2.95,9.12,5.85,14.73,5.4,4.06-.33,8.79-2.34,10.47-6.33,4.06-9.7-4.57-17.41-11.94-21.69-5.19-3-10.76-3.86-16.46-5.44-.16,0-.31-.11-.47-.15,9.65-1.66,19.2-4.54,28.44-7.27l2,0a2.74,2.74,0,0,0,1,1.29c5.06,3.6,10,7.64,15.71,10.19,5.11,2.29,10.63,3.38,16.05,4.66,8,1.89,21.33,3.68,23.6-7.39,2.08-10.13-10.87-12.74-18-14.56a66.18,66.18,0,0,0-17.24-1.88q9.4-3.6,18.45-8.08a2.92,2.92,0,0,0,.61.07c10,.11,21,.18,30.24-4.26C528.27,1094.43,537.13,1087.31,533.36,1079.94Zm-27.05,8.64c5.41-4.64,10-7.77,17.4-7.32l3,.36c0,.24.09.47.13.71-4.14,3.41-9.62,4-14.5,6a85.72,85.72,0,0,1-9.23,3.27C504.16,1090.56,505.21,1089.52,506.31,1088.58Zm-45.88,5.13c-2.5,4.6-7,8.9-10.72,12.59-.9.9-1.79,1.72-2.68,2.5.85-1.09,1.7-2.25,2.59-3.5,3.44-4.86,7.83-10.56,9-16.6l.22.08C461.34,1089.83,461.52,1091.71,460.43,1093.71Zm-16.61,3.57a31.73,31.73,0,0,1,7.28-6.39c.52-.33,1.1-.7,1.73-1-1.5,4.51-5.42,9.25-7.87,12.73a42.84,42.84,0,0,1-7.93,9,48.85,48.85,0,0,1,2.05-4.94C440.53,1103.49,441.62,1100,443.82,1097.28Zm-38.73,6.1a80.47,80.47,0,0,1-7.91,5.14,35.77,35.77,0,0,1-10.66,3.7,23.15,23.15,0,0,1,2-1.66c2.5-1.8,5-3.69,7.64-5.31s5.11-2.25,7.79-3.3c2.19-.86,4.15-1.9,6.3-2.63-.34.27-.77.6-1.31,1.06C407.72,1101.43,406.41,1102.42,405.09,1103.38Zm-14.61-1.9a58.79,58.79,0,0,1,8-6,22.26,22.26,0,0,1,5.48-2.56l3.08-.58c2-.59,3.14-.15,3.51,1.3-3.15.75-5.77,2.19-8.81,3.37-3.48,1.36-6.47,2.41-9.59,4.5-1.7,1.14-3.41,2.3-5.1,3.48A33.57,33.57,0,0,1,390.48,1101.48Zm-37.7,30.85c-2.09-3.84-3.69-7.56-3.88-11.47,3.32,7.48,9.13,14.36,13.46,21.2C358.08,1140.5,354.92,1136.28,352.78,1132.33Zm9.18-5.62a65.21,65.21,0,0,1,4,8.21,7.12,7.12,0,0,1,.6,3.53c-2-3.16-4.05-6.23-6.07-9.34-2.25-3.45-5.19-7.29-7-11.33C356.71,1120.25,359.73,1122.86,362,1126.71Zm59.9,16.35a91.61,91.61,0,0,1-8.5-9.67c9.68,7.14,20,13.89,31.79,16.17a2.72,2.72,0,0,0,.39,0C442.27,1158.63,425.76,1146.85,421.86,1143.06Zm5.79-11.69c6.07,1.53,16.17,5.85,18.09,12.8-11.15-2.38-21-9-30.26-15.87C419.52,1129.25,423.53,1130.33,427.65,1131.37Zm62.58-2.41c-4.17-.84-8.4-1.87-12.5-3-6.07-1.67-11.11-4.73-16.09-8.17,4.27.6,8.52,1.52,13,2.6,8.81,2.12,18.44,3.39,26.43,7.81C498,1129.88,492.8,1129.48,490.23,1129Zm-12.91-14.36A62.36,62.36,0,0,1,491,1117c3,.84,11.35,2.37,12.3,6.29-8.34-4.51-18.11-5.89-27.26-8.1l-2.75-.65C474.64,1114.52,476,1114.53,477.32,1114.6Zm37.37-20.31c-1.36.35-2.74.62-4.13.85,1.89-.86,3.73-1.83,5.72-2.54,2.79-1,5.51-1.73,8.09-2.76-.62.45-1.16.81-1.44,1A28.34,28.34,0,0,1,514.69,1094.29Z"/><path class="cls-2" d="M304,1095.13c-11.19,8.43-24.51,12.33-37.9,15.78-4.57,1.17-9.23,2.53-13.94,3.84-4.79-9.59-10.6-16.78-19.54-22.88-6.08-4.14-18.38-8.7-23.3-.38-4.52,7.63,5.93,14,11.13,17.61a51.7,51.7,0,0,0,20.48,8.57,95.05,95.05,0,0,1-19.72,2.74A98.69,98.69,0,0,1,196,1117c.21-4.62-1.74-9-3.67-13.13-2.43-5.2-4.26-9.58-8.64-13.48-5.39-4.79-15.91-11.7-22.24-4-5.24,6.33,3.14,14.19,7,18.57,1.74,2,3.5,3.93,5.35,5.74A234.33,234.33,0,0,1,136.32,1096a2.64,2.64,0,0,0-1-1.06c-4.44-2.57-7.82-7.45-11.77-10.76-3-2.54-6.27-5.45-9.94-7-5.14-2.11-17.13-3.37-20.23,2.7-3.6,7,4.52,14,10,16.82,9.42,4.8,20.68,4.77,31,4.65a2.92,2.92,0,0,0,.61-.07q9,4.47,18.37,8.05a65.53,65.53,0,0,0-16.21,1.66c-7.36,1.77-21,4.39-19,14.81,2.09,10.59,14.85,9.47,22.65,7.62,5.61-1.33,11.37-2.42,16.68-4.75,5.83-2.57,10.88-6.66,16-10.33a2.8,2.8,0,0,0,1-1.28l2,0c9.24,2.73,18.78,5.61,28.44,7.27-5.51,1.58-11.05,2.35-16.16,5.14-7.58,4.13-17,12.2-12.71,22.14,1.68,3.9,6.11,5.84,10.1,6.28,5.48.6,9.91-2,14.36-4.89,9.87-6.29,18-16.6,24.08-26.57a2.62,2.62,0,0,0,.35-.89c13.82-1,27.7-5.6,41-9.12a21.81,21.81,0,0,0-2.09,2.1,44.16,44.16,0,0,0-6.46,10.7c-1.59,3.45-3.76,7.35-3.24,11.27a8.14,8.14,0,0,0,1.51,3.9c.63.84,1.87,1.33,2.33,2.25a2.7,2.7,0,0,0,2.33,1.33c8.31.44,14.56-6.21,18.25-13a52,52,0,0,0,4.73-11.42c1-4-.21-7.84-1.73-11.52,8.92-2.89,17.52-6.61,25.11-12.33C309.45,1097.72,306.76,1093,304,1095.13Zm-85.68-2.74a9.67,9.67,0,0,1,4.48.52,22.23,22.23,0,0,1,4.66,2,52.81,52.81,0,0,1,8.79,6.52,34.11,34.11,0,0,1,3.28,3.31c-1.63-1.13-3.31-2.22-4.92-3.29a36,36,0,0,0-8.23-4c-3.52-1.27-6.63-3-10.27-3.89C216.32,1092.55,217.05,1092.14,218.31,1092.39Zm4.09,11.52c-1.6-1.12-3.17-2.28-4.66-3.53-.53-.45-1-.77-1.28-1.05,2,.69,3.88,1.65,5.95,2.48,2.81,1.14,5.5,1.82,8.11,3.44,2.35,1.45,4.56,3.15,6.82,4.73a27.78,27.78,0,0,1,2.79,2.24,35.45,35.45,0,0,1-10.59-3.7A79.72,79.72,0,0,1,222.4,1103.91Zm-40.08-7.27c2.31,2.67,3.47,5.93,4.9,9.1.85,1.9,1.78,3.82,2.46,5.81a42.74,42.74,0,0,1-7.92-9c-2.44-3.46-6.34-8.18-7.85-12.68a8.29,8.29,0,0,1,1,.51A33.07,33.07,0,0,1,182.32,1096.64Zm-16-2.93c-1.57-3-.22-4.3,1.92-4.63,1.25,5.91,5.52,11.43,8.9,16.22.88,1.25,1.72,2.41,2.56,3.49-.69-.6-1.39-1.24-2.08-1.92C173.71,1103.07,168.84,1098.52,166.29,1093.71ZM103,1081.26c7.1-.43,11.45,2.31,16.71,6.74a50.82,50.82,0,0,1,3.78,3.59,85.45,85.45,0,0,1-9.13-3.24c-5-2.09-10.52-2.63-14.68-6.17C100.1,1081.13,101.19,1080.81,103,1081.26Zm.78,9.57c-.47-.3-1-.66-1.57-1,2.61,1.06,5.39,1.82,8.22,2.81,2,.69,3.76,1.68,5.62,2.54-1-.17-2-.36-3.07-.6A29.36,29.36,0,0,1,103.79,1090.83Zm31,26.44a64.46,64.46,0,0,1,14.63-2.67c1.34-.07,2.69-.08,4-.06-.92.21-1.84.42-2.76.65-9.17,2.21-18.93,3.59-27.28,8.11C124.29,1119.41,131.83,1118.12,134.77,1117.27ZM149,1126c-3.89,1.07-18.11,5.65-23.56,2.38,8-4.53,17.79-5.81,26.68-7.95,4.43-1.07,8.69-2,13-2.59C160.1,1121.23,155,1124.29,149,1126Zm50.08,5.41c4.13-1.06,8.14-2.14,12.19-3.08-9.23,6.86-19.09,13.47-30.22,15.87C183,1137.21,192.89,1133,199.07,1131.37Zm5.79,11.69a49.63,49.63,0,0,1-10.06,7.24c-3.54,2-11.46,4.13-13.57-.71l.34,0c11.77-2.27,22.09-9,31.77-16.16A94.44,94.44,0,0,1,204.86,1143.06Zm55.39-6.81c.76-3.15,2.89-6.73,4.51-9.54a30.22,30.22,0,0,1,8.52-8.93c-1.82,4-4.76,7.89-7,11.33-2,3.16-4.18,6.28-6.16,9.48A5.94,5.94,0,0,1,260.25,1136.25Zm4.11,5.81c4.33-6.85,10.15-13.73,13.47-21.22-.18,3.91-1.79,7.63-3.88,11.49S268.64,1140.51,264.36,1142.06Z"/><path class="cls-2" d="M477.33,1810.16l2.28-1.81a61.51,61.51,0,0,1,8.27-5.45c24.11-13.52,22.63-39.65,21.53-43.84-2.08-7.91,5.46-19.26,5.46-19.26-23.65,19.39-17.58,25.49-24,43.44a106.49,106.49,0,0,1-11.5,23q-6.14,6.7-12.77,12.9a207.65,207.65,0,0,1-23.06,18.59c-4,2.88-8.22,5.46-12.39,8.09l-6.41,3.69c-2.12,1.26-4.36,2.3-6.53,3.47q-3.63,1.83-7.3,3.56c17.06-16.43,26.76-37.63,29.39-47.81a6.92,6.92,0,0,0,1.59.15,7,7,0,1,0-3.67-1c-6.3,22.71-28.26,44.85-36.8,52.81q-5.1,2.12-10.32,3.91a232.09,232.09,0,0,1-28.4,7.88,229.33,229.33,0,0,1-29.16,3.86c-1.56.12-3.13.2-4.69.26a123.9,123.9,0,0,1,26.66-19.82c19.68-10.93,27.95-5,46-36.31,0,0-11.78,11-21.39,10.07-5.09-.48-35.83,2.82-46.94,33.5a72.86,72.86,0,0,1-4.76,10.68l-1.08,1.94a223.36,223.36,0,0,1-23.15-.47,202.18,202.18,0,0,1-29-4.17l-3.58-.78c-1.2-.25-2.39-.52-3.56-.86l-.43-.11c19.36-.52,34.86-8.59,42.35-13.34a5.71,5.71,0,0,0,.89,1,6,6,0,1,0-1.71-2.73c-17.63,10.74-45.21,11.44-54.37,11.36l-.79-.25c-1.16-.38-2.34-.71-3.49-1.13l-3.43-1.25-3.44-1.26-1.71-.63-1.69-.7-6.74-2.84c-2.27-.89-4.41-2-6.62-3.08l-3.29-1.59c-1.1-.52-2.19-1.05-3.25-1.65-4.26-2.35-8.58-4.6-12.67-7.24l-2.56-1.58a125,125,0,0,1,30.49-1.44c22.45,1.65,26.13,11.13,58.38-5.12,0,0-15.86,2.71-23.41-3.32-4-3.19-31.49-17.3-57.62,2.25a72.52,72.52,0,0,1-9.84,6.32l-.07,0,0,0-1.51-1-6-4.13a209.68,209.68,0,0,1-22.44-18.51l-2.65-2.49c-.89-.83-1.7-1.73-2.55-2.59l-5.05-5.23-4.79-5.46c-.79-.92-1.61-1.82-2.38-2.75l-2.25-2.84c-1.75-2.13-3.43-4.31-5.06-6.52,21.82,13.34,44.7,15.85,56.49,16.14a8.06,8.06,0,0,0,10.06,7.72,8.1,8.1,0,1,0-9.7-10.26c-24.15-1-51.05-16.15-64.51-24.75q-1.95-3-3.84-6.13L133.2,1767c-1.2-2.09-2.23-4.28-3.36-6.41l-1.66-3.22c-.55-1.07-1-2.19-1.52-3.28l-3-6.59-.13-.29a.61.61,0,0,1,0-.12,6.12,6.12,0,0,0-11,5.35l3.34,6.88c.57,1.14,1.09,2.3,1.7,3.42l1.84,3.36c1.24,2.22,2.4,4.5,3.72,6.67l4,6.52c3.94,6.09,8.06,12.07,12.51,17.79a107.4,107.4,0,0,1-2,12.61c-9.39,43.42,23.65,69.46,29.86,72.59,11.73,5.92,17.37,27.09,17.37,27.09,1.83-49.12-12-48.3-26.74-75.15a173.07,173.07,0,0,1-13.21-30.66l.27.32,2.44,2.92c.84,1,1.72,1.88,2.57,2.82l5.17,5.6,5.44,5.34c.91.88,1.78,1.8,2.73,2.65l2.85,2.53a200.7,200.7,0,0,0,19.31,15.48c11.69,9.59,36.11,31.72,44.76,55.62a8.1,8.1,0,1,0,4.13-1.43,7.71,7.71,0,0,0-1.81.32,119.34,119.34,0,0,0-22.61-39.32c2.13,1.11,4.28,2.2,6.42,3.3,1.11.6,2.26,1.12,3.42,1.64l3.45,1.56c2.32,1,4.58,2.15,7,3l7,2.76,1.77.68,1.79.61,3.59,1.21,3.59,1.2c1.19.4,2.42.71,3.63,1.07,2.43.69,4.84,1.43,7.28,2.06l.76.19.07.09a72.81,72.81,0,0,1,6,10c14.65,29.16,45.55,28.81,50.55,27.74,9.44-2,22.43,7.48,22.43,7.48-21.61-28.93-29.13-22.1-49.95-30.64a126.07,126.07,0,0,1-25.08-13.77l2.59.62c1.22.31,2.46.57,3.7.79l3.71.71a208.8,208.8,0,0,0,30,3.53c5.5.24,11,.31,16.52.18,9.76,1.29,43,6.72,62.19,22.67a7,7,0,1,0,2.46-2.89,7.13,7.13,0,0,0-1.21,1c-7.56-6.51-23.11-17.82-44.06-22.23a236.93,236.93,0,0,0,24-4.1q10.62-2.52,21-6l.63.46a62.35,62.35,0,0,1,7.46,6.51c19.47,19.62,44.26,11.2,48,9,7.06-4.11,20,.12,20,.12-25-17.61-29.27-10.12-48.28-11.51a105.66,105.66,0,0,1-26-5.21c2-.69,4-1.41,6-2.15a217.06,217.06,0,0,0,27.23-12.55c2.17-1.24,4.41-2.35,6.52-3.69l6.4-3.89,5.35-3.58c23-3,43-13.68,51.16-20.08a6.75,6.75,0,0,0,1.17,1.09,7,7,0,1,0-2.34-3c-12.07,9.17-29.16,14.22-42.92,17a210.53,210.53,0,0,0,22.68-19.26Q472.64,1815.34,477.33,1810.16Z"/><path class="cls-2" d="M1557.22,1889.12c-11.27-13.62-22.43-15-25.5-15.17-1.54-2.18-2.91-4.22-4.13-6.08,5.35,2.64,10.78,5.11,16.31,7.34a237.08,237.08,0,0,0,28.81,9.2c1.08.27,2.15.53,3.23.78a77.13,77.13,0,0,1,22.8,9.18l1.41.85h0c25.48,38.66,69.13,16.38,69.13,16.38-9.93,1.43-18.33-7.57-37.32-16-16.17-7.15-26.79-3.44-29.6-2.17-3.36-1.81-6.31-3.52-8.77-5,3,.42,5.93.8,8.9,1.12a209,209,0,0,0,30.12,1l3.77-.14c1.25,0,2.5-.1,3.75-.22l7.51-.63c2.49-.26,5-.62,7.47-.93,1.24-.17,2.49-.29,3.72-.51l3.71-.65a25.41,25.41,0,0,1,7.44-.2l14.51,1.72h0c37.89,26.6,70.31-10.15,70.31-10.15-8.71,5-19.82-.31-40.58-1.15-17.66-.71-26.18,6.64-28.32,8.85-4.22-.5-7.91-1.06-10.92-1.59l2.3-.51c2.46-.49,4.84-1.28,7.26-1.92l3.62-1c1.21-.33,2.41-.67,3.59-1.09,4.75-1.6,9.52-3.1,14.14-5l3.49-1.37,1.74-.69,1.71-.77,6.83-3.09c4-1.93,7.89-3.93,11.75-6a65.28,65.28,0,0,1,22.29-7.48q2.71-.39,5.34-.87h0c44.62,12.33,62.82-33.17,62.82-33.17-6.53,7.61-18.78,6.36-38.61,12.54-16.88,5.26-22.43,15-23.71,17.84-5.81,1.33-10.7,2.19-14.13,2.72l.36-.23,3.13-2c1.05-.68,2-1.45,3.05-2.17l6.07-4.38,5.84-4.66c1-.79,2-1.55,2.9-2.35l2.8-2.47c3-2.56,5.88-5.23,8.69-8h0c4.14-3.86,10.14-9.17,14.42-13.71a30.12,30.12,0,0,1,6.78-5.5c36.85-21.33,22.43-64.86,22.43-64.86.18,10-9.8,17.24-20.5,35-8.45,14.08-7,24.57-6,28.35-.12.47-.25,1-.36,1.52l-4.91,5.52a214,214,0,0,1-21.5,20.44l-2.84,2.39c-1,.77-2,1.5-2.94,2.25l-5.91,4.48-2.8,1.91a124.9,124.9,0,0,0,8.76-14.07h0c37.47-27.18,13.26-69.79,13.26-69.79,1.87,9.86-6.74,18.65-14.29,38-6.41,16.47-2.23,26.91-.84,29.66-3.2,6.65-6.4,12.22-8.35,15.45a14.89,14.89,0,0,1-4.9,5l0,0-3.16,1.93a210.33,210.33,0,0,1-26.12,13.84l-6.81,2.88-1.7.71-1.74.63-3.47,1.27c-4.59,1.78-9.32,3.14-14,4.59-1.17.39-2.36.69-3.56,1l-.06,0a127.44,127.44,0,0,0,11.82-10.37h0c43.79-15,33.11-62.85,33.11-62.85-1.09,10-11.91,15.85-24.78,32.15-11,13.88-10,25.09-9.49,28.12-3.49,3.78-6.64,6.9-9.08,9.21a23.75,23.75,0,0,1-12.18,6.3h-.08l-7.23,1.44-1.8.35-1.83.27-3.64.54-3.64.55c-1.22.18-2.44.26-3.66.4-2.45.24-4.88.53-7.33.73l-7.34.42c-1.23.09-2.45.12-3.68.12l-3.67,0c-5.32,0-10.63-.1-15.93-.44a125.57,125.57,0,0,0,12.23-4.66h0c46.27,1.59,53.37-46.89,53.37-46.89-4.59,8.92-16.79,10.56-34.63,21.19-15.19,9-18.31,19.85-18.9,22.88-2.77,1.37-5.32,2.56-7.58,3.57a32.72,32.72,0,0,1-17.75,2.59h-.1a210.81,210.81,0,0,1-28.73-5.75,228,228,0,0,1-27.63-9.61c-2.61-1.13-5.18-2.32-7.75-3.55a125.27,125.27,0,0,0,15,.25h0c42.47,18.44,66.84-24.08,66.84-24.08-7.53,6.63-19.49,3.68-40,7-17.45,2.86-24.31,11.77-26,14.37l-2,.16a54.69,54.69,0,0,1-32-7.4l-.15-.09a208.21,208.21,0,0,1-23.91-16.68c-1.86-1.55-3.82-3-5.61-4.64l-5.46-4.82.11-.15q4.44,2,8.78,3.64h0c32,33.45,70.94,3.71,70.94,3.71-9.5,3.18-19.38-4.17-39.58-9-17.19-4.13-27,1.43-29.51,3.18-2.62-.85-5-1.69-7.16-2.46a35.16,35.16,0,0,1-13.83-9.08l-.06-.06A204.83,204.83,0,0,1,1457,1796q-4.89-6.91-9.26-14.16,3.49,2.88,7,5.3h0c18.65,33,55.58,17.28,55.58,17.28-8.2.6-14.56-7.23-29.61-15.16-12.81-6.75-21.7-4.32-24.07-3.44-1.57-1-3-1.95-4.36-2.84a31.92,31.92,0,0,1-10.45-11.57l0-.07a229.45,229.45,0,0,1-11.67-26.49l0-.1v0a6,6,0,0,0-5.92-4,6.14,6.14,0,0,0-5.48,8.39,244.62,244.62,0,0,0,13,27.65,227.68,227.68,0,0,0,16.68,25.55c3.65,4.91,7.55,9.62,11.64,14.16a43.79,43.79,0,0,1,10.57,22v0c-13,44.43,32.21,63.32,32.21,63.32-7.51-6.65-6.07-18.87-12-38.8-5-17-14.7-22.65-17.48-24-.88-4.1-1.52-7.74-2-10.74,2.63,2.54,5.36,5,8.06,7.46l5.83,4.89c1.91,1.66,4,3.12,6,4.69a218.52,218.52,0,0,0,25.33,16.71l.54.31a29,29,0,0,1,10.56,10.11c.42.69.85,1.37,1.28,2h0c5.51,46,54.51,45.56,54.51,45.56C1573.94,1916.94,1570.45,1905.13,1557.22,1889.12Z"/><path class="cls-2" d="M788.61,1890.9s1.53-29.48-14-53.41C774.58,1837.49,771.08,1863.48,788.61,1890.9Z"/><path class="cls-2" d="M770.41,1826s-14.22,22-10,54.31C760.39,1880.32,774.31,1854.29,770.41,1826Z"/><path class="cls-2" d="M1139.67,1789.42a105.47,105.47,0,0,0-36.75,14q3.66-4.9,7.07-10c6.63-2.19,26.62-10.25,42.34-31.89a105.79,105.79,0,0,0-31.77,18.67,91.13,91.13,0,0,0,16.28-33.64s-18.12,15.42-26.7,38.66a90.43,90.43,0,0,0-2.31-44s-8.59,25.59-1.87,51.65a218.16,218.16,0,0,1-15.72,20.48l-.24.22h0c-.71.81-1.41,1.63-2.13,2.43a90.1,90.1,0,0,0,8.14-45.84s-14.1,23.62-12.77,50.84q-6.19,6.48-12.87,12.41a92.18,92.18,0,0,0,9.1-17.33,103.22,103.22,0,0,0-18.14,15.93,91,91,0,0,0,3.87-34.9s-12.58,21.08-12.85,46.35a82.92,82.92,0,0,0-4.33,7.24c-1,.69-2.06,1.37-3.1,2a87.6,87.6,0,0,0-10.07,6.14q-8.61,4.92-17.68,9.05a90.82,90.82,0,0,0,24.57-34.31,105.55,105.55,0,0,0-23.27,21.47,62.11,62.11,0,0,0,2.68-13.85s-11.21,13.37-13.73,30.83a217.48,217.48,0,0,1-36.3,10.83,91.59,91.59,0,0,0,27.53-16.29,105.53,105.53,0,0,0-30.89,8.7,91.46,91.46,0,0,0,18.36-21s-25.12,10.15-40.53,32.28q-9.67.83-19.23.79a60.63,60.63,0,0,0,24.68-21.88s-17.2,6.81-27.68,21.86a215.25,215.25,0,0,1-44.14-5.38,90.62,90.62,0,0,0,42.56-6s-27.73-6.89-53.83,3.08a215.39,215.39,0,0,1-35.25-13.53,90.7,90.7,0,0,0,40.57.27,105.81,105.81,0,0,0-31.69-7,91.28,91.28,0,0,0,27.88-11.18s-26.65-2-50.15,10.75c-2-1.16-4-2.33-5.93-3.55l-1.27-.94.05.17a215.16,215.16,0,0,1-30.39-23.18,90.48,90.48,0,0,0,43.43,8.78s-22.66-14.68-49.58-14.63a214.29,214.29,0,0,1-26-31.08,91.12,91.12,0,0,0,29.47,19.64s-11.47-18.41-31.4-30.44a90.62,90.62,0,0,0,42.67,8.41A105.57,105.57,0,0,0,753.76,1778a90.93,90.93,0,0,0,35.82-8.94s-26.71-4.66-51.51,6a217,217,0,0,1-13.54-30.19,1.83,1.83,0,0,0-3.45,1.24,218.57,218.57,0,0,0,45.12,74.2A60.29,60.29,0,0,0,744,1846.1s15.21-8.7,23.61-24.27q1.71,1.82,3.47,3.6c2.24,6.31,10.8,26.38,33.15,41.68a104.4,104.4,0,0,0-13.59-24,219.71,219.71,0,0,0,23.4,16.32,89.64,89.64,0,0,0,30.79,39.1,105.6,105.6,0,0,0-19.64-32.8A219.21,219.21,0,0,0,861.81,1881a60.25,60.25,0,0,0,8.9,33.2s1.26-17-6.57-32.49q2.93.88,5.88,1.68c3.4,6.41,14.63,24.52,38.24,36.36,0,0-11.36-21.52-32.62-34.91,2.86.7,5.74,1.33,8.63,1.91a89.38,89.38,0,0,0,48.55,15.54,103.76,103.76,0,0,0-22.09-11.88,220,220,0,0,0,37.36-.31,59.88,59.88,0,0,0,33.84,10.72s-12.31-9-28.29-11.32c2.92-.36,5.85-.76,8.77-1.23a220.45,220.45,0,0,0,60.28-18.81,60.36,60.36,0,0,0,20.22,27,70.76,70.76,0,0,0-14.71-24.61,89.8,89.8,0,0,0,46,17.47,105.23,105.23,0,0,0-36.23-18.89,91,91,0,0,0,40-5.14,105.58,105.58,0,0,0-38.26-2.08,90.7,90.7,0,0,0,36.8-21,95.73,95.73,0,0,0-15.72,3.88,217.6,217.6,0,0,0,34.81-33.33A89.66,89.66,0,0,0,1139.67,1789.42Zm-399.26-10.14v0l.16.1Z"/><path class="cls-2" d="M1118.73,1161.23c-2.57-3.72-2.56-8.27-3.79-12.48a19.89,19.89,0,0,0-5.62-9c-4.44-4.16-11.41-5.25-17.15-7.09a68,68,0,0,0-5.58-4.87,3.33,3.33,0,0,0-.46-.46c-4-3.07-7.88-6.08-11.85-9a30.42,30.42,0,0,0,9.26,1.69,31.83,31.83,0,0,0,25.09-11.65,2.74,2.74,0,0,0-1.91-4.6c-4.6-.48-8.35-3.94-12.55-5.6a19.22,19.22,0,0,0-9.91-1c-5.82.87-10.9,5.19-15.86,8.26l-2.83.51a23.3,23.3,0,0,1-14.61-2.15,102.32,102.32,0,0,0-18-7.07,2,2,0,0,0-.7-.19c-.88-.24-1.76-.49-2.66-.71a98.33,98.33,0,0,0-13.29-2.3c.32-.13.63-.25.93-.39a32,32,0,0,0,17.56-21.42c.48-1.86-1.31-4-3.32-3.31-4.34,1.54-8.84.32-13.32.47a19.4,19.4,0,0,0-10.5,3.56c-4.76,3.32-7.49,9.4-10.61,14.27l-4,3.28a27.48,27.48,0,0,1-11.73,5.61,166.55,166.55,0,0,0-19.51,5.32c-10.25,3.44-20.26,7.58-30.3,11.61a28.9,28.9,0,0,0,2.12-2.34A32.18,32.18,0,0,0,940.1,1084c-.36-2.08-3.17-2.48-4.51-1.19-3,2.93-7.36,3.7-11.11,5.41a19.48,19.48,0,0,0-8.13,6.81c-3.62,5.14-3.53,12.31-4.51,18.39l-.06.08a29.49,29.49,0,0,1-17,11.65l-1.24.31a161.73,161.73,0,0,1-46.37,4.15c.39-.44.76-.89,1.16-1.33,7,2.11,14.72-1,20.31-5.55A32,32,0,0,0,880.09,1098c0-1.86-2.22-3.6-4-2.43-3.77,2.53-8.3,2.45-12.54,3.63a20,20,0,0,0-9.07,5.45c-4.25,4.39-5.45,11.36-7.38,17.08l0,0a17.11,17.11,0,0,1-15.94,6.23c-1.68-.26-3.36-.54-5-.85a165.81,165.81,0,0,1-20.78-5.23l0,0v0a158.86,158.86,0,0,1-15.12-5.68c-11.15-4.88-24.59-10.8-31-21.7-1.76-3-6.42-.28-4.66,2.72,5.77,9.8,16,15.23,25.75,20.29a168.51,168.51,0,0,0,18.67,7.91,16.51,16.51,0,0,1,6.69,4.64c.31.35.59.67.83,1-3.1,6.66-1.16,14.71,2.58,20.9a32,32,0,0,0,22.84,14.87c1.85.27,3.89-1.69,3-3.59-2-4.09-1.23-8.56-1.79-12.92a19.89,19.89,0,0,0-4.09-9.76c-3.73-4.84-10.46-7-15.85-9.76l-1.22-1.32A170.78,170.78,0,0,0,865.8,1135a23.16,23.16,0,0,1,10.37,1.78c0,7.35,5.14,13.83,11.14,17.87a32,32,0,0,0,27,3.86c1.79-.53,2.82-3.17,1.18-4.51-3.5-2.88-4.72-7.24-7.06-11a19.87,19.87,0,0,0-7.82-7.12c-5.43-2.82-12.46-2-18.5-2.18,0-.33,0-.21,0-.54,19.35-3.24,36.33-9.56,54.63-16.92l.25-.11a14.85,14.85,0,0,1,8.78-.93l1.08.21c1.94,6.66,8.08,11.25,14.53,13.61a31.87,31.87,0,0,0,28.11-3.42c1.52-1,2-3.81,0-4.66-4.17-1.78-6.59-5.6-9.87-8.53a20,20,0,0,0-9.5-4.68c-6.13-1.23-12.79,1.69-18.74,3.16l-.13-.4c18.68-7.16,38.07-13.15,58.22-12.3a98.58,98.58,0,0,1,16,2,12.27,12.27,0,0,1,7.57,5c.08.13.17.25.26.38-3.7,6.16-2.65,14.22.27,20.63a31.93,31.93,0,0,0,21.44,17.53c1.87.47,4-1.31,3.32-3.32-1.55-4.34-.34-8.84-.49-13.32a19.39,19.39,0,0,0-3.58-10.49c-3.34-4.76-9.42-7.48-14.29-10.6-.44-.73-.9-1.46-1.37-2.18a90.24,90.24,0,0,1,10.17,4.32c11.57,5.8,21.88,13.82,32.06,21.75h0a11.76,11.76,0,0,1,4.25,8.84c.11,5.6,2.87,11.2,6.51,15.47a32,32,0,0,0,24.9,11C1118.32,1165.27,1119.94,1163,1118.73,1161.23ZM855,1121.85c3-2.51,6.78-4.35,8.68-7.95,1.61-3.06-3-5.94-4.57-2.87a15.11,15.11,0,0,1-4.5,4.68,19.75,19.75,0,0,1,4.53-8c4.18-4,10-3.81,15.21-5.4a26.12,26.12,0,0,1-7,14.31c-3.35,3.53-9.17,7.29-14.51,7.16C853.54,1123.11,854.26,1122.47,855,1121.85Zm-36.48,26.45c2.79,2,6.3-2.06,3.49-4.11a15.14,15.14,0,0,1-4-5.12,19.57,19.57,0,0,1,7.28,5.63c3.36,4.71,2.34,10.45,3.17,15.83a26.14,26.14,0,0,1-13.16-9c-3-3.82-5.9-10.12-5-15.39.55.8,1.08,1.6,1.59,2.43C814,1142,815.24,1145.9,818.53,1148.3Zm65.73-7c3.28,2.2,6.11,5.24,10.11,6,3.39.67,4.84-4.52,1.43-5.2a15,15,0,0,1-5.77-3,19.54,19.54,0,0,1,9,2c5,2.85,6.52,8.48,9.54,13a26.07,26.07,0,0,1-15.72-2.61c-4.35-2.21-9.62-6.7-11-11.86C882.63,1140.23,883.45,1140.74,884.26,1141.28Zm33.61-26.94c.56-.72,1.11-1.44,1.71-2.13,2.71-3.14,6-5.61,7.3-9.68,1.06-3.31-4.14-4.72-5.2-1.43a14.77,14.77,0,0,1-3.58,5.22,19.49,19.49,0,0,1,3.11-8.77c3.45-4.65,9.2-5.59,14.09-8.08a26.37,26.37,0,0,1-4.63,15.65C927.91,1109.17,923,1113.52,917.87,1114.34Zm38,3.15c3.81,1.21,7.28,3.2,11.36,2.94,3.44-.21,3.47-5.6,0-5.39a16.29,16.29,0,0,1-6.47-1.25c3.13-.81,6.3-1.28,9.18-.55,5.65,1.43,8.64,6.37,12.83,9.84a26,26,0,0,1-17.32,1.55c-4.28-1.1-9.8-3.81-12.37-7.93C954,1116.94,954.94,1117.19,955.86,1117.49Zm46.23-27.43c.87-.46,1.73-.91,2.62-1.33,3.58-1.69,7.61-2.58,10.34-5.61,2.31-2.57-1.49-6.4-3.82-3.81a15.18,15.18,0,0,1-5.52,3.44,20,20,0,0,1,5.89-6.43c5.12-3.17,10.93-1.54,16.56-1.83a26.38,26.38,0,0,1-11.06,12.68C1013.14,1089.5,1007,1091.39,1002.09,1090.06Zm41.43,34c2.58,2.31,6.41-1.49,3.81-3.81a15.33,15.33,0,0,1-3.45-5.52,20,20,0,0,1,6.44,5.87c3.18,5.12,1.56,10.94,1.86,16.56a26.28,26.28,0,0,1-12.69-11c-2.34-4-4.25-10.13-2.93-15,.46.86.92,1.73,1.34,2.61C1039.59,1117.31,1040.49,1121.35,1043.52,1124.06Zm31.17-13.37c3.8,0,7.54.83,11.17-.57,3.21-1.23,1.81-6.44-1.43-5.19a16.56,16.56,0,0,1-6.61.74c2.72-1.69,5.56-3.07,8.47-3.25,5.79-.37,10.31,3.31,15.4,5.43a26.1,26.1,0,0,1-17,6.84c-4.38.09-9.69-1-13.18-3.94C1072.54,1110.7,1073.61,1110.68,1074.69,1110.69Zm22.88,42.09c-3.58-3.31-7.38-9-7.33-14.36.58.62,1.16,1.24,1.71,1.89,2.64,3,4.58,7,8.34,8.83,3.11,1.51,5.84-3.13,2.72-4.65a14.45,14.45,0,0,1-4.75-4.42,19.65,19.65,0,0,1,8.16,4.46c4,4.1,3.95,9.9,5.6,15.07A26.15,26.15,0,0,1,1097.57,1152.78Z"/></svg>